ISO-10303-21;
HEADER;
/* Generated by software containing ST-Developer
 * from STEP Tools, Inc. (www.steptools.com) 
 */

FILE_DESCRIPTION(
/* description */ (''),
/* implementation_level */ '2;1');

FILE_NAME(
/* name */ 'E-paper Stand-V2.step',
/* time_stamp */ '2026-08-31T17:10:53+09:00',
/* author */ (''),
/* organization */ (''),
/* preprocessor_version */ 'ST-DEVELOPER v20.1',
/* originating_system */ 'Autodesk Translation Framework v15.8.0.0',
/* authorisation */ '');

FILE_SCHEMA (('AUTOMOTIVE_DESIGN { 1 0 10303 214 3 1 1 }'));
ENDSEC;

DATA;
#10=MECHANICAL_DESIGN_GEOMETRIC_PRESENTATION_REPRESENTATION('',(#13),#1193);
#11=SHAPE_REPRESENTATION_RELATIONSHIP('SRR','None',#1200,#12);
#12=ADVANCED_BREP_SHAPE_REPRESENTATION('',(#14),#1192);
#13=STYLED_ITEM('',(#1209),#14);
#14=MANIFOLD_SOLID_BREP('Cover-Smooth',#710);
#15=SPHERICAL_SURFACE('',#750,0.8);
#16=SPHERICAL_SURFACE('',#752,0.8);
#17=SPHERICAL_SURFACE('',#754,0.8);
#18=SPHERICAL_SURFACE('',#776,0.8);
#19=SPHERICAL_SURFACE('',#777,0.8);
#20=SPHERICAL_SURFACE('',#778,0.8);
#21=CYLINDRICAL_SURFACE('',#740,0.8);
#22=CYLINDRICAL_SURFACE('',#742,0.8);
#23=CYLINDRICAL_SURFACE('',#745,0.8);
#24=CYLINDRICAL_SURFACE('',#748,0.8);
#25=CYLINDRICAL_SURFACE('',#757,0.8);
#26=CYLINDRICAL_SURFACE('',#760,0.8);
#27=CYLINDRICAL_SURFACE('',#763,0.8);
#28=CYLINDRICAL_SURFACE('',#766,0.8);
#29=CYLINDRICAL_SURFACE('',#768,0.8);
#30=CYLINDRICAL_SURFACE('',#771,0.8);
#31=CYLINDRICAL_SURFACE('',#774,0.8);
#32=FACE_BOUND('',#106,.T.);
#33=FACE_BOUND('',#122,.T.);
#34=CIRCLE('',#729,0.8);
#35=CIRCLE('',#730,0.8);
#36=CIRCLE('',#731,0.8);
#37=CIRCLE('',#732,0.8);
#38=CIRCLE('',#741,0.8);
#39=CIRCLE('',#743,0.8);
#40=CIRCLE('',#744,0.799999999999997);
#41=CIRCLE('',#746,0.8);
#42=CIRCLE('',#747,0.800000000000005);
#43=CIRCLE('',#749,0.800000000000001);
#44=CIRCLE('',#751,0.8);
#45=CIRCLE('',#753,0.800000000000001);
#46=CIRCLE('',#755,0.8);
#47=CIRCLE('',#758,0.8);
#48=CIRCLE('',#761,0.800000000000001);
#49=CIRCLE('',#764,0.8);
#50=CIRCLE('',#767,0.800000000000001);
#51=CIRCLE('',#769,0.800000000000001);
#52=CIRCLE('',#770,0.800000000000006);
#53=CIRCLE('',#772,0.800000000000001);
#54=CIRCLE('',#773,0.799999999999997);
#55=CIRCLE('',#775,0.800000000000001);
#56=FACE_OUTER_BOUND('',#97,.T.);
#57=FACE_OUTER_BOUND('',#98,.T.);
#58=FACE_OUTER_BOUND('',#99,.T.);
#59=FACE_OUTER_BOUND('',#100,.T.);
#60=FACE_OUTER_BOUND('',#101,.T.);
#61=FACE_OUTER_BOUND('',#102,.T.);
#62=FACE_OUTER_BOUND('',#103,.T.);
#63=FACE_OUTER_BOUND('',#104,.T.);
#64=FACE_OUTER_BOUND('',#105,.T.);
#65=FACE_OUTER_BOUND('',#107,.T.);
#66=FACE_OUTER_BOUND('',#108,.T.);
#67=FACE_OUTER_BOUND('',#109,.T.);
#68=FACE_OUTER_BOUND('',#110,.T.);
#69=FACE_OUTER_BOUND('',#111,.T.);
#70=FACE_OUTER_BOUND('',#112,.T.);
#71=FACE_OUTER_BOUND('',#113,.T.);
#72=FACE_OUTER_BOUND('',#114,.T.);
#73=FACE_OUTER_BOUND('',#115,.T.);
#74=FACE_OUTER_BOUND('',#116,.T.);
#75=FACE_OUTER_BOUND('',#117,.T.);
#76=FACE_OUTER_BOUND('',#118,.T.);
#77=FACE_OUTER_BOUND('',#119,.T.);
#78=FACE_OUTER_BOUND('',#120,.T.);
#79=FACE_OUTER_BOUND('',#121,.T.);
#80=FACE_OUTER_BOUND('',#123,.T.);
#81=FACE_OUTER_BOUND('',#124,.T.);
#82=FACE_OUTER_BOUND('',#125,.T.);
#83=FACE_OUTER_BOUND('',#126,.T.);
#84=FACE_OUTER_BOUND('',#127,.T.);
#85=FACE_OUTER_BOUND('',#128,.T.);
#86=FACE_OUTER_BOUND('',#129,.T.);
#87=FACE_OUTER_BOUND('',#130,.T.);
#88=FACE_OUTER_BOUND('',#131,.T.);
#89=FACE_OUTER_BOUND('',#132,.T.);
#90=FACE_OUTER_BOUND('',#133,.T.);
#91=FACE_OUTER_BOUND('',#134,.T.);
#92=FACE_OUTER_BOUND('',#135,.T.);
#93=FACE_OUTER_BOUND('',#136,.T.);
#94=FACE_OUTER_BOUND('',#137,.T.);
#95=FACE_OUTER_BOUND('',#138,.T.);
#96=FACE_OUTER_BOUND('',#139,.T.);
#97=EDGE_LOOP('',(#449,#450,#451,#452));
#98=EDGE_LOOP('',(#453,#454,#455,#456,#457));
#99=EDGE_LOOP('',(#458,#459,#460,#461));
#100=EDGE_LOOP('',(#462,#463,#464,#465,#466,#467,#468));
#101=EDGE_LOOP('',(#469,#470,#471,#472,#473,#474,#475,#476,#477,#478,#479,
#480,#481,#482,#483,#484));
#102=EDGE_LOOP('',(#485,#486,#487,#488));
#103=EDGE_LOOP('',(#489,#490,#491,#492,#493));
#104=EDGE_LOOP('',(#494,#495,#496,#497));
#105=EDGE_LOOP('',(#498,#499,#500,#501));
#106=EDGE_LOOP('',(#502,#503,#504,#505));
#107=EDGE_LOOP('',(#506,#507,#508,#509));
#108=EDGE_LOOP('',(#510,#511,#512,#513));
#109=EDGE_LOOP('',(#514,#515,#516,#517));
#110=EDGE_LOOP('',(#518,#519,#520,#521));
#111=EDGE_LOOP('',(#522,#523,#524,#525));
#112=EDGE_LOOP('',(#526,#527,#528,#529));
#113=EDGE_LOOP('',(#530,#531,#532,#533));
#114=EDGE_LOOP('',(#534,#535,#536));
#115=EDGE_LOOP('',(#537,#538,#539));
#116=EDGE_LOOP('',(#540,#541,#542));
#117=EDGE_LOOP('',(#543,#544,#545,#546,#547,#548,#549,#550));
#118=EDGE_LOOP('',(#551,#552,#553,#554));
#119=EDGE_LOOP('',(#555,#556,#557,#558));
#120=EDGE_LOOP('',(#559,#560,#561,#562));
#121=EDGE_LOOP('',(#563,#564,#565,#566));
#122=EDGE_LOOP('',(#567,#568,#569,#570));
#123=EDGE_LOOP('',(#571,#572,#573,#574));
#124=EDGE_LOOP('',(#575,#576,#577,#578));
#125=EDGE_LOOP('',(#579,#580,#581,#582));
#126=EDGE_LOOP('',(#583,#584,#585,#586));
#127=EDGE_LOOP('',(#587,#588,#589,#590));
#128=EDGE_LOOP('',(#591,#592,#593,#594));
#129=EDGE_LOOP('',(#595,#596,#597));
#130=EDGE_LOOP('',(#598,#599,#600));
#131=EDGE_LOOP('',(#601,#602,#603));
#132=EDGE_LOOP('',(#604,#605,#606,#607,#608));
#133=EDGE_LOOP('',(#609,#610,#611,#612,#613));
#134=EDGE_LOOP('',(#614,#615,#616,#617,#618,#619,#620,#621,#622,#623));
#135=EDGE_LOOP('',(#624,#625,#626,#627,#628));
#136=EDGE_LOOP('',(#629,#630,#631,#632));
#137=EDGE_LOOP('',(#633,#634,#635,#636));
#138=EDGE_LOOP('',(#637,#638,#639,#640));
#139=EDGE_LOOP('',(#641,#642,#643,#644));
#140=LINE('',#995,#216);
#141=LINE('',#997,#217);
#142=LINE('',#999,#218);
#143=LINE('',#1000,#219);
#144=LINE('',#1003,#220);
#145=LINE('',#1005,#221);
#146=LINE('',#1007,#222);
#147=LINE('',#1008,#223);
#148=LINE('',#1011,#224);
#149=LINE('',#1012,#225);
#150=LINE('',#1015,#226);
#151=LINE('',#1017,#227);
#152=LINE('',#1019,#228);
#153=LINE('',#1021,#229);
#154=LINE('',#1022,#230);
#155=LINE('',#1025,#231);
#156=LINE('',#1027,#232);
#157=LINE('',#1029,#233);
#158=LINE('',#1033,#234);
#159=LINE('',#1037,#235);
#160=LINE('',#1041,#236);
#161=LINE('',#1045,#237);
#162=LINE('',#1047,#238);
#163=LINE('',#1048,#239);
#164=LINE('',#1051,#240);
#165=LINE('',#1053,#241);
#166=LINE('',#1054,#242);
#167=LINE('',#1057,#243);
#168=LINE('',#1059,#244);
#169=LINE('',#1061,#245);
#170=LINE('',#1062,#246);
#171=LINE('',#1066,#247);
#172=LINE('',#1068,#248);
#173=LINE('',#1070,#249);
#174=LINE('',#1071,#250);
#175=LINE('',#1073,#251);
#176=LINE('',#1074,#252);
#177=LINE('',#1076,#253);
#178=LINE('',#1078,#254);
#179=LINE('',#1079,#255);
#180=LINE('',#1082,#256);
#181=LINE('',#1083,#257);
#182=LINE('',#1086,#258);
#183=LINE('',#1087,#259);
#184=LINE('',#1089,#260);
#185=LINE('',#1092,#261);
#186=LINE('',#1095,#262);
#187=LINE('',#1101,#263);
#188=LINE('',#1103,#264);
#189=LINE('',#1109,#265);
#190=LINE('',#1111,#266);
#191=LINE('',#1114,#267);
#192=LINE('',#1116,#268);
#193=LINE('',#1125,#269);
#194=LINE('',#1126,#270);
#195=LINE('',#1128,#271);
#196=LINE('',#1130,#272);
#197=LINE('',#1131,#273);
#198=LINE('',#1134,#274);
#199=LINE('',#1138,#275);
#200=LINE('',#1139,#276);
#201=LINE('',#1142,#277);
#202=LINE('',#1146,#278);
#203=LINE('',#1147,#279);
#204=LINE('',#1150,#280);
#205=LINE('',#1153,#281);
#206=LINE('',#1156,#282);
#207=LINE('',#1162,#283);
#208=LINE('',#1167,#284);
#209=LINE('',#1170,#285);
#210=LINE('',#1178,#286);
#211=LINE('',#1180,#287);
#212=LINE('',#1181,#288);
#213=LINE('',#1182,#289);
#214=LINE('',#1186,#290);
#215=LINE('',#1188,#291);
#216=VECTOR('',#791,10.);
#217=VECTOR('',#792,10.);
#218=VECTOR('',#793,10.);
#219=VECTOR('',#794,10.);
#220=VECTOR('',#797,10.);
#221=VECTOR('',#798,10.);
#222=VECTOR('',#799,10.);
#223=VECTOR('',#800,10.);
#224=VECTOR('',#803,10.);
#225=VECTOR('',#804,10.);
#226=VECTOR('',#807,10.);
#227=VECTOR('',#808,10.);
#228=VECTOR('',#809,10.);
#229=VECTOR('',#810,10.);
#230=VECTOR('',#811,10.);
#231=VECTOR('',#814,10.);
#232=VECTOR('',#815,10.);
#233=VECTOR('',#816,10.);
#234=VECTOR('',#819,10.);
#235=VECTOR('',#822,10.);
#236=VECTOR('',#825,10.);
#237=VECTOR('',#828,10.);
#238=VECTOR('',#829,10.);
#239=VECTOR('',#830,10.);
#240=VECTOR('',#833,10.);
#241=VECTOR('',#834,10.);
#242=VECTOR('',#835,10.);
#243=VECTOR('',#838,10.);
#244=VECTOR('',#839,10.);
#245=VECTOR('',#840,10.);
#246=VECTOR('',#841,10.);
#247=VECTOR('',#844,10.);
#248=VECTOR('',#845,10.);
#249=VECTOR('',#846,10.);
#250=VECTOR('',#847,10.);
#251=VECTOR('',#850,10.);
#252=VECTOR('',#851,10.);
#253=VECTOR('',#852,10.);
#254=VECTOR('',#853,10.);
#255=VECTOR('',#854,10.);
#256=VECTOR('',#857,10.);
#257=VECTOR('',#858,10.);
#258=VECTOR('',#861,10.);
#259=VECTOR('',#862,10.);
#260=VECTOR('',#865,10.);
#261=VECTOR('',#868,10.);
#262=VECTOR('',#871,10.);
#263=VECTOR('',#876,10.);
#264=VECTOR('',#879,10.);
#265=VECTOR('',#884,10.);
#266=VECTOR('',#887,10.);
#267=VECTOR('',#890,10.);
#268=VECTOR('',#893,10.);
#269=VECTOR('',#908,10.);
#270=VECTOR('',#909,10.);
#271=VECTOR('',#910,10.);
#272=VECTOR('',#911,10.);
#273=VECTOR('',#912,10.);
#274=VECTOR('',#915,10.);
#275=VECTOR('',#920,10.);
#276=VECTOR('',#921,10.);
#277=VECTOR('',#924,10.);
#278=VECTOR('',#929,10.);
#279=VECTOR('',#930,10.);
#280=VECTOR('',#933,10.);
#281=VECTOR('',#938,10.);
#282=VECTOR('',#941,10.);
#283=VECTOR('',#950,10.);
#284=VECTOR('',#957,10.);
#285=VECTOR('',#962,10.);
#286=VECTOR('',#975,10.);
#287=VECTOR('',#976,10.);
#288=VECTOR('',#977,10.);
#289=VECTOR('',#978,10.);
#290=VECTOR('',#985,10.);
#291=VECTOR('',#988,10.);
#292=VERTEX_POINT('',#993);
#293=VERTEX_POINT('',#994);
#294=VERTEX_POINT('',#996);
#295=VERTEX_POINT('',#998);
#296=VERTEX_POINT('',#1002);
#297=VERTEX_POINT('',#1004);
#298=VERTEX_POINT('',#1006);
#299=VERTEX_POINT('',#1010);
#300=VERTEX_POINT('',#1014);
#301=VERTEX_POINT('',#1016);
#302=VERTEX_POINT('',#1018);
#303=VERTEX_POINT('',#1020);
#304=VERTEX_POINT('',#1024);
#305=VERTEX_POINT('',#1026);
#306=VERTEX_POINT('',#1028);
#307=VERTEX_POINT('',#1030);
#308=VERTEX_POINT('',#1032);
#309=VERTEX_POINT('',#1034);
#310=VERTEX_POINT('',#1036);
#311=VERTEX_POINT('',#1038);
#312=VERTEX_POINT('',#1040);
#313=VERTEX_POINT('',#1042);
#314=VERTEX_POINT('',#1044);
#315=VERTEX_POINT('',#1046);
#316=VERTEX_POINT('',#1050);
#317=VERTEX_POINT('',#1052);
#318=VERTEX_POINT('',#1056);
#319=VERTEX_POINT('',#1058);
#320=VERTEX_POINT('',#1060);
#321=VERTEX_POINT('',#1064);
#322=VERTEX_POINT('',#1065);
#323=VERTEX_POINT('',#1067);
#324=VERTEX_POINT('',#1069);
#325=VERTEX_POINT('',#1075);
#326=VERTEX_POINT('',#1077);
#327=VERTEX_POINT('',#1081);
#328=VERTEX_POINT('',#1085);
#329=VERTEX_POINT('',#1091);
#330=VERTEX_POINT('',#1093);
#331=VERTEX_POINT('',#1097);
#332=VERTEX_POINT('',#1098);
#333=VERTEX_POINT('',#1100);
#334=VERTEX_POINT('',#1105);
#335=VERTEX_POINT('',#1106);
#336=VERTEX_POINT('',#1108);
#337=VERTEX_POINT('',#1113);
#338=VERTEX_POINT('',#1124);
#339=VERTEX_POINT('',#1127);
#340=VERTEX_POINT('',#1129);
#341=VERTEX_POINT('',#1133);
#342=VERTEX_POINT('',#1137);
#343=VERTEX_POINT('',#1141);
#344=VERTEX_POINT('',#1145);
#345=VERTEX_POINT('',#1149);
#346=VERTEX_POINT('',#1155);
#347=VERTEX_POINT('',#1159);
#348=VERTEX_POINT('',#1164);
#349=VERTEX_POINT('',#1177);
#350=VERTEX_POINT('',#1179);
#351=EDGE_CURVE('',#292,#293,#140,.T.);
#352=EDGE_CURVE('',#294,#292,#141,.T.);
#353=EDGE_CURVE('',#295,#294,#142,.T.);
#354=EDGE_CURVE('',#295,#293,#143,.T.);
#355=EDGE_CURVE('',#296,#294,#144,.T.);
#356=EDGE_CURVE('',#297,#296,#145,.T.);
#357=EDGE_CURVE('',#297,#298,#146,.T.);
#358=EDGE_CURVE('',#295,#298,#147,.T.);
#359=EDGE_CURVE('',#299,#292,#148,.T.);
#360=EDGE_CURVE('',#296,#299,#149,.T.);
#361=EDGE_CURVE('',#300,#293,#150,.T.);
#362=EDGE_CURVE('',#301,#300,#151,.T.);
#363=EDGE_CURVE('',#302,#301,#152,.T.);
#364=EDGE_CURVE('',#302,#303,#153,.T.);
#365=EDGE_CURVE('',#303,#299,#154,.T.);
#366=EDGE_CURVE('',#304,#298,#155,.T.);
#367=EDGE_CURVE('',#304,#305,#156,.T.);
#368=EDGE_CURVE('',#305,#306,#157,.T.);
#369=EDGE_CURVE('',#307,#306,#34,.T.);
#370=EDGE_CURVE('',#308,#307,#158,.T.);
#371=EDGE_CURVE('',#309,#308,#35,.T.);
#372=EDGE_CURVE('',#310,#309,#159,.T.);
#373=EDGE_CURVE('',#311,#310,#36,.T.);
#374=EDGE_CURVE('',#312,#311,#160,.T.);
#375=EDGE_CURVE('',#313,#312,#37,.T.);
#376=EDGE_CURVE('',#313,#314,#161,.T.);
#377=EDGE_CURVE('',#315,#314,#162,.T.);
#378=EDGE_CURVE('',#300,#315,#163,.T.);
#379=EDGE_CURVE('',#316,#296,#164,.T.);
#380=EDGE_CURVE('',#317,#316,#165,.T.);
#381=EDGE_CURVE('',#297,#317,#166,.T.);
#382=EDGE_CURVE('',#318,#316,#167,.T.);
#383=EDGE_CURVE('',#319,#318,#168,.T.);
#384=EDGE_CURVE('',#320,#319,#169,.T.);
#385=EDGE_CURVE('',#317,#320,#170,.T.);
#386=EDGE_CURVE('',#321,#322,#171,.T.);
#387=EDGE_CURVE('',#323,#322,#172,.T.);
#388=EDGE_CURVE('',#323,#324,#173,.T.);
#389=EDGE_CURVE('',#321,#324,#174,.T.);
#390=EDGE_CURVE('',#302,#319,#175,.T.);
#391=EDGE_CURVE('',#303,#318,#176,.T.);
#392=EDGE_CURVE('',#325,#321,#177,.T.);
#393=EDGE_CURVE('',#324,#326,#178,.T.);
#394=EDGE_CURVE('',#326,#325,#179,.T.);
#395=EDGE_CURVE('',#327,#325,#180,.T.);
#396=EDGE_CURVE('',#327,#322,#181,.T.);
#397=EDGE_CURVE('',#326,#328,#182,.T.);
#398=EDGE_CURVE('',#327,#328,#183,.T.);
#399=EDGE_CURVE('',#323,#328,#184,.T.);
#400=EDGE_CURVE('',#312,#329,#185,.T.);
#401=EDGE_CURVE('',#329,#330,#38,.T.);
#402=EDGE_CURVE('',#330,#313,#186,.T.);
#403=EDGE_CURVE('',#331,#332,#39,.T.);
#404=EDGE_CURVE('',#332,#333,#187,.T.);
#405=EDGE_CURVE('',#333,#329,#40,.T.);
#406=EDGE_CURVE('',#329,#331,#188,.T.);
#407=EDGE_CURVE('',#334,#335,#41,.T.);
#408=EDGE_CURVE('',#335,#336,#189,.T.);
#409=EDGE_CURVE('',#336,#331,#42,.T.);
#410=EDGE_CURVE('',#331,#334,#190,.T.);
#411=EDGE_CURVE('',#310,#337,#191,.T.);
#412=EDGE_CURVE('',#337,#334,#43,.T.);
#413=EDGE_CURVE('',#334,#311,#192,.T.);
#414=EDGE_CURVE('',#337,#335,#44,.T.);
#415=EDGE_CURVE('',#336,#332,#45,.T.);
#416=EDGE_CURVE('',#333,#330,#46,.T.);
#417=EDGE_CURVE('',#338,#330,#193,.T.);
#418=EDGE_CURVE('',#306,#338,#194,.T.);
#419=EDGE_CURVE('',#305,#339,#195,.T.);
#420=EDGE_CURVE('',#339,#340,#196,.T.);
#421=EDGE_CURVE('',#314,#340,#197,.T.);
#422=EDGE_CURVE('',#333,#341,#198,.T.);
#423=EDGE_CURVE('',#338,#341,#47,.T.);
#424=EDGE_CURVE('',#342,#332,#199,.T.);
#425=EDGE_CURVE('',#341,#342,#200,.T.);
#426=EDGE_CURVE('',#336,#343,#201,.T.);
#427=EDGE_CURVE('',#342,#343,#48,.T.);
#428=EDGE_CURVE('',#344,#335,#202,.T.);
#429=EDGE_CURVE('',#343,#344,#203,.T.);
#430=EDGE_CURVE('',#337,#345,#204,.T.);
#431=EDGE_CURVE('',#344,#345,#49,.T.);
#432=EDGE_CURVE('',#345,#309,#205,.T.);
#433=EDGE_CURVE('',#308,#346,#206,.T.);
#434=EDGE_CURVE('',#346,#345,#50,.T.);
#435=EDGE_CURVE('',#347,#343,#51,.T.);
#436=EDGE_CURVE('',#344,#346,#52,.T.);
#437=EDGE_CURVE('',#346,#347,#207,.T.);
#438=EDGE_CURVE('',#348,#341,#53,.T.);
#439=EDGE_CURVE('',#342,#347,#54,.T.);
#440=EDGE_CURVE('',#347,#348,#208,.T.);
#441=EDGE_CURVE('',#338,#348,#55,.T.);
#442=EDGE_CURVE('',#348,#307,#209,.T.);
#443=EDGE_CURVE('',#349,#315,#210,.T.);
#444=EDGE_CURVE('',#349,#350,#211,.T.);
#445=EDGE_CURVE('',#350,#304,#212,.T.);
#446=EDGE_CURVE('',#301,#320,#213,.T.);
#447=EDGE_CURVE('',#349,#340,#214,.T.);
#448=EDGE_CURVE('',#339,#350,#215,.T.);
#449=ORIENTED_EDGE('',*,*,#351,.F.);
#450=ORIENTED_EDGE('',*,*,#352,.F.);
#451=ORIENTED_EDGE('',*,*,#353,.F.);
#452=ORIENTED_EDGE('',*,*,#354,.T.);
#453=ORIENTED_EDGE('',*,*,#353,.T.);
#454=ORIENTED_EDGE('',*,*,#355,.F.);
#455=ORIENTED_EDGE('',*,*,#356,.F.);
#456=ORIENTED_EDGE('',*,*,#357,.T.);
#457=ORIENTED_EDGE('',*,*,#358,.F.);
#458=ORIENTED_EDGE('',*,*,#352,.T.);
#459=ORIENTED_EDGE('',*,*,#359,.F.);
#460=ORIENTED_EDGE('',*,*,#360,.F.);
#461=ORIENTED_EDGE('',*,*,#355,.T.);
#462=ORIENTED_EDGE('',*,*,#351,.T.);
#463=ORIENTED_EDGE('',*,*,#361,.F.);
#464=ORIENTED_EDGE('',*,*,#362,.F.);
#465=ORIENTED_EDGE('',*,*,#363,.F.);
#466=ORIENTED_EDGE('',*,*,#364,.T.);
#467=ORIENTED_EDGE('',*,*,#365,.T.);
#468=ORIENTED_EDGE('',*,*,#359,.T.);
#469=ORIENTED_EDGE('',*,*,#361,.T.);
#470=ORIENTED_EDGE('',*,*,#354,.F.);
#471=ORIENTED_EDGE('',*,*,#358,.T.);
#472=ORIENTED_EDGE('',*,*,#366,.F.);
#473=ORIENTED_EDGE('',*,*,#367,.T.);
#474=ORIENTED_EDGE('',*,*,#368,.T.);
#475=ORIENTED_EDGE('',*,*,#369,.F.);
#476=ORIENTED_EDGE('',*,*,#370,.F.);
#477=ORIENTED_EDGE('',*,*,#371,.F.);
#478=ORIENTED_EDGE('',*,*,#372,.F.);
#479=ORIENTED_EDGE('',*,*,#373,.F.);
#480=ORIENTED_EDGE('',*,*,#374,.F.);
#481=ORIENTED_EDGE('',*,*,#375,.F.);
#482=ORIENTED_EDGE('',*,*,#376,.T.);
#483=ORIENTED_EDGE('',*,*,#377,.F.);
#484=ORIENTED_EDGE('',*,*,#378,.F.);
#485=ORIENTED_EDGE('',*,*,#356,.T.);
#486=ORIENTED_EDGE('',*,*,#379,.F.);
#487=ORIENTED_EDGE('',*,*,#380,.F.);
#488=ORIENTED_EDGE('',*,*,#381,.F.);
#489=ORIENTED_EDGE('',*,*,#380,.T.);
#490=ORIENTED_EDGE('',*,*,#382,.F.);
#491=ORIENTED_EDGE('',*,*,#383,.F.);
#492=ORIENTED_EDGE('',*,*,#384,.F.);
#493=ORIENTED_EDGE('',*,*,#385,.F.);
#494=ORIENTED_EDGE('',*,*,#386,.T.);
#495=ORIENTED_EDGE('',*,*,#387,.F.);
#496=ORIENTED_EDGE('',*,*,#388,.T.);
#497=ORIENTED_EDGE('',*,*,#389,.F.);
#498=ORIENTED_EDGE('',*,*,#364,.F.);
#499=ORIENTED_EDGE('',*,*,#390,.T.);
#500=ORIENTED_EDGE('',*,*,#383,.T.);
#501=ORIENTED_EDGE('',*,*,#391,.F.);
#502=ORIENTED_EDGE('',*,*,#392,.T.);
#503=ORIENTED_EDGE('',*,*,#389,.T.);
#504=ORIENTED_EDGE('',*,*,#393,.T.);
#505=ORIENTED_EDGE('',*,*,#394,.T.);
#506=ORIENTED_EDGE('',*,*,#392,.F.);
#507=ORIENTED_EDGE('',*,*,#395,.F.);
#508=ORIENTED_EDGE('',*,*,#396,.T.);
#509=ORIENTED_EDGE('',*,*,#386,.F.);
#510=ORIENTED_EDGE('',*,*,#395,.T.);
#511=ORIENTED_EDGE('',*,*,#394,.F.);
#512=ORIENTED_EDGE('',*,*,#397,.T.);
#513=ORIENTED_EDGE('',*,*,#398,.F.);
#514=ORIENTED_EDGE('',*,*,#393,.F.);
#515=ORIENTED_EDGE('',*,*,#388,.F.);
#516=ORIENTED_EDGE('',*,*,#399,.T.);
#517=ORIENTED_EDGE('',*,*,#397,.F.);
#518=ORIENTED_EDGE('',*,*,#375,.T.);
#519=ORIENTED_EDGE('',*,*,#400,.T.);
#520=ORIENTED_EDGE('',*,*,#401,.T.);
#521=ORIENTED_EDGE('',*,*,#402,.T.);
#522=ORIENTED_EDGE('',*,*,#403,.T.);
#523=ORIENTED_EDGE('',*,*,#404,.T.);
#524=ORIENTED_EDGE('',*,*,#405,.T.);
#525=ORIENTED_EDGE('',*,*,#406,.T.);
#526=ORIENTED_EDGE('',*,*,#407,.T.);
#527=ORIENTED_EDGE('',*,*,#408,.T.);
#528=ORIENTED_EDGE('',*,*,#409,.T.);
#529=ORIENTED_EDGE('',*,*,#410,.T.);
#530=ORIENTED_EDGE('',*,*,#373,.T.);
#531=ORIENTED_EDGE('',*,*,#411,.T.);
#532=ORIENTED_EDGE('',*,*,#412,.T.);
#533=ORIENTED_EDGE('',*,*,#413,.T.);
#534=ORIENTED_EDGE('',*,*,#412,.F.);
#535=ORIENTED_EDGE('',*,*,#414,.T.);
#536=ORIENTED_EDGE('',*,*,#407,.F.);
#537=ORIENTED_EDGE('',*,*,#409,.F.);
#538=ORIENTED_EDGE('',*,*,#415,.T.);
#539=ORIENTED_EDGE('',*,*,#403,.F.);
#540=ORIENTED_EDGE('',*,*,#405,.F.);
#541=ORIENTED_EDGE('',*,*,#416,.T.);
#542=ORIENTED_EDGE('',*,*,#401,.F.);
#543=ORIENTED_EDGE('',*,*,#402,.F.);
#544=ORIENTED_EDGE('',*,*,#417,.F.);
#545=ORIENTED_EDGE('',*,*,#418,.F.);
#546=ORIENTED_EDGE('',*,*,#368,.F.);
#547=ORIENTED_EDGE('',*,*,#419,.T.);
#548=ORIENTED_EDGE('',*,*,#420,.T.);
#549=ORIENTED_EDGE('',*,*,#421,.F.);
#550=ORIENTED_EDGE('',*,*,#376,.F.);
#551=ORIENTED_EDGE('',*,*,#416,.F.);
#552=ORIENTED_EDGE('',*,*,#422,.T.);
#553=ORIENTED_EDGE('',*,*,#423,.F.);
#554=ORIENTED_EDGE('',*,*,#417,.T.);
#555=ORIENTED_EDGE('',*,*,#404,.F.);
#556=ORIENTED_EDGE('',*,*,#424,.F.);
#557=ORIENTED_EDGE('',*,*,#425,.F.);
#558=ORIENTED_EDGE('',*,*,#422,.F.);
#559=ORIENTED_EDGE('',*,*,#415,.F.);
#560=ORIENTED_EDGE('',*,*,#426,.T.);
#561=ORIENTED_EDGE('',*,*,#427,.F.);
#562=ORIENTED_EDGE('',*,*,#424,.T.);
#563=ORIENTED_EDGE('',*,*,#408,.F.);
#564=ORIENTED_EDGE('',*,*,#428,.F.);
#565=ORIENTED_EDGE('',*,*,#429,.F.);
#566=ORIENTED_EDGE('',*,*,#426,.F.);
#567=ORIENTED_EDGE('',*,*,#396,.F.);
#568=ORIENTED_EDGE('',*,*,#398,.T.);
#569=ORIENTED_EDGE('',*,*,#399,.F.);
#570=ORIENTED_EDGE('',*,*,#387,.T.);
#571=ORIENTED_EDGE('',*,*,#414,.F.);
#572=ORIENTED_EDGE('',*,*,#430,.T.);
#573=ORIENTED_EDGE('',*,*,#431,.F.);
#574=ORIENTED_EDGE('',*,*,#428,.T.);
#575=ORIENTED_EDGE('',*,*,#411,.F.);
#576=ORIENTED_EDGE('',*,*,#372,.T.);
#577=ORIENTED_EDGE('',*,*,#432,.F.);
#578=ORIENTED_EDGE('',*,*,#430,.F.);
#579=ORIENTED_EDGE('',*,*,#371,.T.);
#580=ORIENTED_EDGE('',*,*,#433,.T.);
#581=ORIENTED_EDGE('',*,*,#434,.T.);
#582=ORIENTED_EDGE('',*,*,#432,.T.);
#583=ORIENTED_EDGE('',*,*,#435,.T.);
#584=ORIENTED_EDGE('',*,*,#429,.T.);
#585=ORIENTED_EDGE('',*,*,#436,.T.);
#586=ORIENTED_EDGE('',*,*,#437,.T.);
#587=ORIENTED_EDGE('',*,*,#438,.T.);
#588=ORIENTED_EDGE('',*,*,#425,.T.);
#589=ORIENTED_EDGE('',*,*,#439,.T.);
#590=ORIENTED_EDGE('',*,*,#440,.T.);
#591=ORIENTED_EDGE('',*,*,#369,.T.);
#592=ORIENTED_EDGE('',*,*,#418,.T.);
#593=ORIENTED_EDGE('',*,*,#441,.T.);
#594=ORIENTED_EDGE('',*,*,#442,.T.);
#595=ORIENTED_EDGE('',*,*,#441,.F.);
#596=ORIENTED_EDGE('',*,*,#423,.T.);
#597=ORIENTED_EDGE('',*,*,#438,.F.);
#598=ORIENTED_EDGE('',*,*,#439,.F.);
#599=ORIENTED_EDGE('',*,*,#427,.T.);
#600=ORIENTED_EDGE('',*,*,#435,.F.);
#601=ORIENTED_EDGE('',*,*,#436,.F.);
#602=ORIENTED_EDGE('',*,*,#431,.T.);
#603=ORIENTED_EDGE('',*,*,#434,.F.);
#604=ORIENTED_EDGE('',*,*,#433,.F.);
#605=ORIENTED_EDGE('',*,*,#370,.T.);
#606=ORIENTED_EDGE('',*,*,#442,.F.);
#607=ORIENTED_EDGE('',*,*,#440,.F.);
#608=ORIENTED_EDGE('',*,*,#437,.F.);
#609=ORIENTED_EDGE('',*,*,#400,.F.);
#610=ORIENTED_EDGE('',*,*,#374,.T.);
#611=ORIENTED_EDGE('',*,*,#413,.F.);
#612=ORIENTED_EDGE('',*,*,#410,.F.);
#613=ORIENTED_EDGE('',*,*,#406,.F.);
#614=ORIENTED_EDGE('',*,*,#443,.F.);
#615=ORIENTED_EDGE('',*,*,#444,.T.);
#616=ORIENTED_EDGE('',*,*,#445,.T.);
#617=ORIENTED_EDGE('',*,*,#366,.T.);
#618=ORIENTED_EDGE('',*,*,#357,.F.);
#619=ORIENTED_EDGE('',*,*,#381,.T.);
#620=ORIENTED_EDGE('',*,*,#385,.T.);
#621=ORIENTED_EDGE('',*,*,#446,.F.);
#622=ORIENTED_EDGE('',*,*,#362,.T.);
#623=ORIENTED_EDGE('',*,*,#378,.T.);
#624=ORIENTED_EDGE('',*,*,#379,.T.);
#625=ORIENTED_EDGE('',*,*,#360,.T.);
#626=ORIENTED_EDGE('',*,*,#365,.F.);
#627=ORIENTED_EDGE('',*,*,#391,.T.);
#628=ORIENTED_EDGE('',*,*,#382,.T.);
#629=ORIENTED_EDGE('',*,*,#363,.T.);
#630=ORIENTED_EDGE('',*,*,#446,.T.);
#631=ORIENTED_EDGE('',*,*,#384,.T.);
#632=ORIENTED_EDGE('',*,*,#390,.F.);
#633=ORIENTED_EDGE('',*,*,#377,.T.);
#634=ORIENTED_EDGE('',*,*,#421,.T.);
#635=ORIENTED_EDGE('',*,*,#447,.F.);
#636=ORIENTED_EDGE('',*,*,#443,.T.);
#637=ORIENTED_EDGE('',*,*,#447,.T.);
#638=ORIENTED_EDGE('',*,*,#420,.F.);
#639=ORIENTED_EDGE('',*,*,#448,.T.);
#640=ORIENTED_EDGE('',*,*,#444,.F.);
#641=ORIENTED_EDGE('',*,*,#445,.F.);
#642=ORIENTED_EDGE('',*,*,#448,.F.);
#643=ORIENTED_EDGE('',*,*,#419,.F.);
#644=ORIENTED_EDGE('',*,*,#367,.F.);
#645=PLANE('',#724);
#646=PLANE('',#725);
#647=PLANE('',#726);
#648=PLANE('',#727);
#649=PLANE('',#728);
#650=PLANE('',#733);
#651=PLANE('',#734);
#652=PLANE('',#735);
#653=PLANE('',#736);
#654=PLANE('',#737);
#655=PLANE('',#738);
#656=PLANE('',#739);
#657=PLANE('',#756);
#658=PLANE('',#759);
#659=PLANE('',#762);
#660=PLANE('',#765);
#661=PLANE('',#779);
#662=PLANE('',#780);
#663=PLANE('',#781);
#664=PLANE('',#782);
#665=PLANE('',#783);
#666=PLANE('',#784);
#667=PLANE('',#785);
#668=PLANE('',#786);
#669=ADVANCED_FACE('',(#56),#645,.T.);
#670=ADVANCED_FACE('',(#57),#646,.F.);
#671=ADVANCED_FACE('',(#58),#647,.F.);
#672=ADVANCED_FACE('',(#59),#648,.T.);
#673=ADVANCED_FACE('',(#60),#649,.T.);
#674=ADVANCED_FACE('',(#61),#650,.T.);
#675=ADVANCED_FACE('',(#62),#651,.F.);
#676=ADVANCED_FACE('',(#63),#652,.F.);
#677=ADVANCED_FACE('',(#64,#32),#653,.F.);
#678=ADVANCED_FACE('',(#65),#654,.T.);
#679=ADVANCED_FACE('',(#66),#655,.F.);
#680=ADVANCED_FACE('',(#67),#656,.F.);
#681=ADVANCED_FACE('',(#68),#21,.T.);
#682=ADVANCED_FACE('',(#69),#22,.T.);
#683=ADVANCED_FACE('',(#70),#23,.T.);
#684=ADVANCED_FACE('',(#71),#24,.T.);
#685=ADVANCED_FACE('',(#72),#15,.T.);
#686=ADVANCED_FACE('',(#73),#16,.T.);
#687=ADVANCED_FACE('',(#74),#17,.T.);
#688=ADVANCED_FACE('',(#75),#657,.T.);
#689=ADVANCED_FACE('',(#76),#25,.T.);
#690=ADVANCED_FACE('',(#77),#658,.T.);
#691=ADVANCED_FACE('',(#78),#26,.T.);
#692=ADVANCED_FACE('',(#79,#33),#659,.T.);
#693=ADVANCED_FACE('',(#80),#27,.T.);
#694=ADVANCED_FACE('',(#81),#660,.T.);
#695=ADVANCED_FACE('',(#82),#28,.T.);
#696=ADVANCED_FACE('',(#83),#29,.T.);
#697=ADVANCED_FACE('',(#84),#30,.T.);
#698=ADVANCED_FACE('',(#85),#31,.T.);
#699=ADVANCED_FACE('',(#86),#18,.T.);
#700=ADVANCED_FACE('',(#87),#19,.T.);
#701=ADVANCED_FACE('',(#88),#20,.T.);
#702=ADVANCED_FACE('',(#89),#661,.T.);
#703=ADVANCED_FACE('',(#90),#662,.T.);
#704=ADVANCED_FACE('',(#91),#663,.F.);
#705=ADVANCED_FACE('',(#92),#664,.F.);
#706=ADVANCED_FACE('',(#93),#665,.F.);
#707=ADVANCED_FACE('',(#94),#666,.T.);
#708=ADVANCED_FACE('',(#95),#667,.F.);
#709=ADVANCED_FACE('',(#96),#668,.F.);
#710=CLOSED_SHELL('',(#669,#670,#671,#672,#673,#674,#675,#676,#677,#678,
#679,#680,#681,#682,#683,#684,#685,#686,#687,#688,#689,#690,#691,#692,#693,
#694,#695,#696,#697,#698,#699,#700,#701,#702,#703,#704,#705,#706,#707,#708,
#709));
#711=DERIVED_UNIT_ELEMENT(#713,1.);
#712=DERIVED_UNIT_ELEMENT(#1195,-3.);
#713=(
MASS_UNIT()
NAMED_UNIT(*)
SI_UNIT(.KILO.,.GRAM.)
);
#714=DERIVED_UNIT((#711,#712));
#715=MEASURE_REPRESENTATION_ITEM('density measure',
POSITIVE_RATIO_MEASURE(7850.),#714);
#716=PROPERTY_DEFINITION_REPRESENTATION(#721,#718);
#717=PROPERTY_DEFINITION_REPRESENTATION(#722,#719);
#718=REPRESENTATION('material name',(#720),#1192);
#719=REPRESENTATION('density',(#715),#1192);
#720=DESCRIPTIVE_REPRESENTATION_ITEM('Steel','Steel');
#721=PROPERTY_DEFINITION('material property','material name',#1202);
#722=PROPERTY_DEFINITION('material property','density of part',#1202);
#723=AXIS2_PLACEMENT_3D('',#991,#787,#788);
#724=AXIS2_PLACEMENT_3D('',#992,#789,#790);
#725=AXIS2_PLACEMENT_3D('',#1001,#795,#796);
#726=AXIS2_PLACEMENT_3D('',#1009,#801,#802);
#727=AXIS2_PLACEMENT_3D('',#1013,#805,#806);
#728=AXIS2_PLACEMENT_3D('',#1023,#812,#813);
#729=AXIS2_PLACEMENT_3D('',#1031,#817,#818);
#730=AXIS2_PLACEMENT_3D('',#1035,#820,#821);
#731=AXIS2_PLACEMENT_3D('',#1039,#823,#824);
#732=AXIS2_PLACEMENT_3D('',#1043,#826,#827);
#733=AXIS2_PLACEMENT_3D('',#1049,#831,#832);
#734=AXIS2_PLACEMENT_3D('',#1055,#836,#837);
#735=AXIS2_PLACEMENT_3D('',#1063,#842,#843);
#736=AXIS2_PLACEMENT_3D('',#1072,#848,#849);
#737=AXIS2_PLACEMENT_3D('',#1080,#855,#856);
#738=AXIS2_PLACEMENT_3D('',#1084,#859,#860);
#739=AXIS2_PLACEMENT_3D('',#1088,#863,#864);
#740=AXIS2_PLACEMENT_3D('',#1090,#866,#867);
#741=AXIS2_PLACEMENT_3D('',#1094,#869,#870);
#742=AXIS2_PLACEMENT_3D('',#1096,#872,#873);
#743=AXIS2_PLACEMENT_3D('',#1099,#874,#875);
#744=AXIS2_PLACEMENT_3D('',#1102,#877,#878);
#745=AXIS2_PLACEMENT_3D('',#1104,#880,#881);
#746=AXIS2_PLACEMENT_3D('',#1107,#882,#883);
#747=AXIS2_PLACEMENT_3D('',#1110,#885,#886);
#748=AXIS2_PLACEMENT_3D('',#1112,#888,#889);
#749=AXIS2_PLACEMENT_3D('',#1115,#891,#892);
#750=AXIS2_PLACEMENT_3D('',#1117,#894,#895);
#751=AXIS2_PLACEMENT_3D('',#1118,#896,#897);
#752=AXIS2_PLACEMENT_3D('',#1119,#898,#899);
#753=AXIS2_PLACEMENT_3D('',#1120,#900,#901);
#754=AXIS2_PLACEMENT_3D('',#1121,#902,#903);
#755=AXIS2_PLACEMENT_3D('',#1122,#904,#905);
#756=AXIS2_PLACEMENT_3D('',#1123,#906,#907);
#757=AXIS2_PLACEMENT_3D('',#1132,#913,#914);
#758=AXIS2_PLACEMENT_3D('',#1135,#916,#917);
#759=AXIS2_PLACEMENT_3D('',#1136,#918,#919);
#760=AXIS2_PLACEMENT_3D('',#1140,#922,#923);
#761=AXIS2_PLACEMENT_3D('',#1143,#925,#926);
#762=AXIS2_PLACEMENT_3D('',#1144,#927,#928);
#763=AXIS2_PLACEMENT_3D('',#1148,#931,#932);
#764=AXIS2_PLACEMENT_3D('',#1151,#934,#935);
#765=AXIS2_PLACEMENT_3D('',#1152,#936,#937);
#766=AXIS2_PLACEMENT_3D('',#1154,#939,#940);
#767=AXIS2_PLACEMENT_3D('',#1157,#942,#943);
#768=AXIS2_PLACEMENT_3D('',#1158,#944,#945);
#769=AXIS2_PLACEMENT_3D('',#1160,#946,#947);
#770=AXIS2_PLACEMENT_3D('',#1161,#948,#949);
#771=AXIS2_PLACEMENT_3D('',#1163,#951,#952);
#772=AXIS2_PLACEMENT_3D('',#1165,#953,#954);
#773=AXIS2_PLACEMENT_3D('',#1166,#955,#956);
#774=AXIS2_PLACEMENT_3D('',#1168,#958,#959);
#775=AXIS2_PLACEMENT_3D('',#1169,#960,#961);
#776=AXIS2_PLACEMENT_3D('',#1171,#963,#964);
#777=AXIS2_PLACEMENT_3D('',#1172,#965,#966);
#778=AXIS2_PLACEMENT_3D('',#1173,#967,#968);
#779=AXIS2_PLACEMENT_3D('',#1174,#969,#970);
#780=AXIS2_PLACEMENT_3D('',#1175,#971,#972);
#781=AXIS2_PLACEMENT_3D('',#1176,#973,#974);
#782=AXIS2_PLACEMENT_3D('',#1183,#979,#980);
#783=AXIS2_PLACEMENT_3D('',#1184,#981,#982);
#784=AXIS2_PLACEMENT_3D('',#1185,#983,#984);
#785=AXIS2_PLACEMENT_3D('',#1187,#986,#987);
#786=AXIS2_PLACEMENT_3D('',#1189,#989,#990);
#787=DIRECTION('axis',(0.,0.,1.));
#788=DIRECTION('refdir',(1.,0.,0.));
#789=DIRECTION('center_axis',(-1.,0.,0.));
#790=DIRECTION('ref_axis',(0.,0.,1.));
#791=DIRECTION('',(0.,0.,-1.));
#792=DIRECTION('',(0.,-1.,0.));
#793=DIRECTION('',(0.,0.,1.));
#794=DIRECTION('',(0.,-1.,0.));
#795=DIRECTION('center_axis',(0.,1.,0.));
#796=DIRECTION('ref_axis',(0.,0.,1.));
#797=DIRECTION('',(1.,0.,0.));
#798=DIRECTION('',(1.,0.,0.));
#799=DIRECTION('',(0.,0.,-1.));
#800=DIRECTION('',(-1.,0.,0.));
#801=DIRECTION('center_axis',(0.,0.,1.));
#802=DIRECTION('ref_axis',(1.,0.,0.));
#803=DIRECTION('',(1.,0.,0.));
#804=DIRECTION('',(0.,-1.,0.));
#805=DIRECTION('center_axis',(0.,1.,0.));
#806=DIRECTION('ref_axis',(-1.,0.,0.));
#807=DIRECTION('',(1.,0.,0.));
#808=DIRECTION('',(0.,0.,-1.));
#809=DIRECTION('',(-0.927183854566787,0.,-0.374606593415914));
#810=DIRECTION('',(0.374606593415912,0.,-0.927183854566787));
#811=DIRECTION('',(0.,0.,-1.));
#812=DIRECTION('center_axis',(0.,0.,-1.));
#813=DIRECTION('ref_axis',(-1.,0.,0.));
#814=DIRECTION('',(0.,1.,0.));
#815=DIRECTION('',(-1.,0.,0.));
#816=DIRECTION('',(0.,1.,0.));
#817=DIRECTION('center_axis',(0.,0.,1.));
#818=DIRECTION('ref_axis',(-0.70710678118654,0.707106781186555,0.));
#819=DIRECTION('',(-1.,0.,0.));
#820=DIRECTION('center_axis',(0.,0.,1.));
#821=DIRECTION('ref_axis',(0.70710678118654,0.707106781186555,0.));
#822=DIRECTION('',(0.,1.,0.));
#823=DIRECTION('center_axis',(0.,0.,1.));
#824=DIRECTION('ref_axis',(0.707106781186548,-0.707106781186547,0.));
#825=DIRECTION('',(1.,0.,0.));
#826=DIRECTION('center_axis',(0.,0.,1.));
#827=DIRECTION('ref_axis',(-0.707106781186548,-0.707106781186547,0.));
#828=DIRECTION('',(0.,1.,0.));
#829=DIRECTION('',(-1.,0.,0.));
#830=DIRECTION('',(0.,1.,0.));
#831=DIRECTION('center_axis',(0.,0.,1.));
#832=DIRECTION('ref_axis',(1.,0.,0.));
#833=DIRECTION('',(0.,-1.,0.));
#834=DIRECTION('',(1.,0.,0.));
#835=DIRECTION('',(0.,1.,0.));
#836=DIRECTION('center_axis',(0.,1.,0.));
#837=DIRECTION('ref_axis',(0.,0.,1.));
#838=DIRECTION('',(0.,0.,-1.));
#839=DIRECTION('',(0.374606593415912,0.,-0.927183854566787));
#840=DIRECTION('',(0.927183854566787,0.,0.374606593415914));
#841=DIRECTION('',(0.,0.,1.));
#842=DIRECTION('center_axis',(0.374606593415912,0.,-0.927183854566787));
#843=DIRECTION('ref_axis',(-0.927183854566787,0.,-0.374606593415912));
#844=DIRECTION('',(0.927183854566787,0.,0.374606593415912));
#845=DIRECTION('',(0.,-1.,0.));
#846=DIRECTION('',(-0.927183854566787,0.,-0.374606593415912));
#847=DIRECTION('',(0.,1.,0.));
#848=DIRECTION('center_axis',(0.927183854566787,0.,0.374606593415912));
#849=DIRECTION('ref_axis',(0.374606593415912,0.,-0.927183854566787));
#850=DIRECTION('',(0.,1.,0.));
#851=DIRECTION('',(0.,1.,0.));
#852=DIRECTION('',(0.374606593415912,0.,-0.927183854566787));
#853=DIRECTION('',(-0.374606593415912,0.,0.927183854566787));
#854=DIRECTION('',(0.,-1.,0.));
#855=DIRECTION('center_axis',(0.,1.,0.));
#856=DIRECTION('ref_axis',(0.,0.,1.));
#857=DIRECTION('',(-0.927183854566787,0.,-0.374606593415913));
#858=DIRECTION('',(0.374606593415912,0.,-0.927183854566787));
#859=DIRECTION('center_axis',(-0.374606593415913,0.,0.927183854566787));
#860=DIRECTION('ref_axis',(0.927183854566787,0.,0.374606593415913));
#861=DIRECTION('',(0.927183854566787,0.,0.374606593415913));
#862=DIRECTION('',(0.,1.,0.));
#863=DIRECTION('center_axis',(0.,1.,0.));
#864=DIRECTION('ref_axis',(0.,0.,1.));
#865=DIRECTION('',(-0.374606593415914,0.,0.927183854566787));
#866=DIRECTION('center_axis',(0.,0.,-1.));
#867=DIRECTION('ref_axis',(-0.707106781186548,-0.707106781186547,0.));
#868=DIRECTION('',(0.,0.,1.));
#869=DIRECTION('center_axis',(0.,0.,-1.));
#870=DIRECTION('ref_axis',(0.,-1.,0.));
#871=DIRECTION('',(0.,0.,-1.));
#872=DIRECTION('center_axis',(-0.927183854566787,0.,-0.374606593415914));
#873=DIRECTION('ref_axis',(-0.264886862481579,-0.70710678118655,0.655617990970856));
#874=DIRECTION('center_axis',(-0.927183854566785,0.,-0.374606593415917));
#875=DIRECTION('ref_axis',(0.,-1.,0.));
#876=DIRECTION('',(-0.927183854566787,0.,-0.374606593415914));
#877=DIRECTION('center_axis',(0.927183854566785,0.,0.374606593415917));
#878=DIRECTION('ref_axis',(-0.374606593415917,0.,0.927183854566785));
#879=DIRECTION('',(0.927183854566787,0.,0.374606593415914));
#880=DIRECTION('center_axis',(-0.374606593415914,0.,0.927183854566787));
#881=DIRECTION('ref_axis',(0.655617990970857,-0.707106781186544,0.264886862481592));
#882=DIRECTION('center_axis',(-0.374606593415934,0.,0.927183854566779));
#883=DIRECTION('ref_axis',(0.,-1.,0.));
#884=DIRECTION('',(-0.374606593415914,0.,0.927183854566787));
#885=DIRECTION('center_axis',(0.374606593415913,0.,-0.927183854566787));
#886=DIRECTION('ref_axis',(0.927183854566787,0.,0.374606593415913));
#887=DIRECTION('',(0.374606593415914,0.,-0.927183854566787));
#888=DIRECTION('center_axis',(0.,0.,1.));
#889=DIRECTION('ref_axis',(0.707106781186548,-0.707106781186547,0.));
#890=DIRECTION('',(0.,0.,1.));
#891=DIRECTION('center_axis',(0.,0.,-1.));
#892=DIRECTION('ref_axis',(1.,0.,0.));
#893=DIRECTION('',(0.,0.,-1.));
#894=DIRECTION('center_axis',(0.,0.,1.));
#895=DIRECTION('ref_axis',(1.,0.,0.));
#896=DIRECTION('center_axis',(0.,-1.,0.));
#897=DIRECTION('ref_axis',(0.981627183447664,0.,0.190808995376546));
#898=DIRECTION('center_axis',(-0.225588722214049,-0.816496580927725,-0.531453724931125));
#899=DIRECTION('ref_axis',(0.319030630473528,-0.577350269189623,0.751589065571296));
#900=DIRECTION('center_axis',(0.,-1.,0.));
#901=DIRECTION('ref_axis',(0.390731128489274,0.,0.92050485345244));
#902=DIRECTION('center_axis',(0.,0.,1.));
#903=DIRECTION('ref_axis',(1.,0.,0.));
#904=DIRECTION('center_axis',(0.,-1.,0.));
#905=DIRECTION('ref_axis',(-0.829037572555047,0.,0.55919290347074));
#906=DIRECTION('center_axis',(-1.,0.,0.));
#907=DIRECTION('ref_axis',(0.,0.,1.));
#908=DIRECTION('',(0.,-1.,0.));
#909=DIRECTION('',(0.,0.,1.));
#910=DIRECTION('',(0.,0.,1.));
#911=DIRECTION('',(0.,-1.,0.));
#912=DIRECTION('',(0.,0.,1.));
#913=DIRECTION('center_axis',(0.,1.,0.));
#914=DIRECTION('ref_axis',(-0.829037572555046,0.,0.55919290347074));
#915=DIRECTION('',(0.,1.,0.));
#916=DIRECTION('center_axis',(0.,1.,0.));
#917=DIRECTION('ref_axis',(-0.829037572555047,0.,0.55919290347074));
#918=DIRECTION('center_axis',(-0.374606593415914,0.,0.927183854566787));
#919=DIRECTION('ref_axis',(0.927183854566787,0.,0.374606593415914));
#920=DIRECTION('',(0.,-1.,0.));
#921=DIRECTION('',(0.927183854566787,0.,0.374606593415914));
#922=DIRECTION('center_axis',(0.,1.,0.));
#923=DIRECTION('ref_axis',(0.390731128489272,0.,0.920504853452441));
#924=DIRECTION('',(0.,1.,0.));
#925=DIRECTION('center_axis',(0.,1.,0.));
#926=DIRECTION('ref_axis',(0.390731128489274,0.,0.92050485345244));
#927=DIRECTION('center_axis',(0.927183854566787,0.,0.374606593415914));
#928=DIRECTION('ref_axis',(0.374606593415914,0.,-0.927183854566787));
#929=DIRECTION('',(0.,-1.,0.));
#930=DIRECTION('',(0.374606593415914,0.,-0.927183854566787));
#931=DIRECTION('center_axis',(0.,1.,0.));
#932=DIRECTION('ref_axis',(0.981627183447664,0.,0.190808995376546));
#933=DIRECTION('',(0.,1.,0.));
#934=DIRECTION('center_axis',(0.,1.,0.));
#935=DIRECTION('ref_axis',(0.981627183447664,0.,0.190808995376546));
#936=DIRECTION('center_axis',(1.,0.,0.));
#937=DIRECTION('ref_axis',(0.,0.,-1.));
#938=DIRECTION('',(0.,0.,-1.));
#939=DIRECTION('center_axis',(0.,0.,-1.));
#940=DIRECTION('ref_axis',(0.70710678118654,0.707106781186555,0.));
#941=DIRECTION('',(0.,0.,1.));
#942=DIRECTION('center_axis',(0.,0.,-1.));
#943=DIRECTION('ref_axis',(0.,1.,0.));
#944=DIRECTION('center_axis',(0.374606593415914,0.,-0.927183854566787));
#945=DIRECTION('ref_axis',(0.65561799097085,0.707106781186552,0.264886862481589));
#946=DIRECTION('center_axis',(0.374606593415913,0.,-0.927183854566787));
#947=DIRECTION('ref_axis',(0.,1.,0.));
#948=DIRECTION('center_axis',(-0.374606593415934,0.,0.927183854566779));
#949=DIRECTION('ref_axis',(0.927183854566778,0.,0.374606593415934));
#950=DIRECTION('',(-0.374606593415914,0.,0.927183854566787));
#951=DIRECTION('center_axis',(0.927183854566787,0.,0.374606593415914));
#952=DIRECTION('ref_axis',(-0.264886862481576,0.707106781186558,0.655617990970848));
#953=DIRECTION('center_axis',(0.927183854566785,0.,0.374606593415917));
#954=DIRECTION('ref_axis',(0.,1.,0.));
#955=DIRECTION('center_axis',(-0.927183854566785,0.,-0.374606593415917));
#956=DIRECTION('ref_axis',(-0.374606593415917,0.,0.927183854566785));
#957=DIRECTION('',(-0.927183854566787,0.,-0.374606593415914));
#958=DIRECTION('center_axis',(0.,0.,1.));
#959=DIRECTION('ref_axis',(-0.70710678118654,0.707106781186555,0.));
#960=DIRECTION('center_axis',(0.,0.,-1.));
#961=DIRECTION('ref_axis',(-1.,0.,0.));
#962=DIRECTION('',(0.,0.,-1.));
#963=DIRECTION('center_axis',(0.,0.,1.));
#964=DIRECTION('ref_axis',(1.,0.,0.));
#965=DIRECTION('center_axis',(0.225588722214051,-0.816496580927723,0.531453724931128));
#966=DIRECTION('ref_axis',(0.31903063047352,0.577350269189623,0.751589065571299));
#967=DIRECTION('center_axis',(0.,0.,1.));
#968=DIRECTION('ref_axis',(1.,0.,0.));
#969=DIRECTION('center_axis',(0.,1.,0.));
#970=DIRECTION('ref_axis',(0.,0.,1.));
#971=DIRECTION('center_axis',(0.,-1.,0.));
#972=DIRECTION('ref_axis',(0.,0.,-1.));
#973=DIRECTION('center_axis',(-1.,0.,0.));
#974=DIRECTION('ref_axis',(0.,0.,1.));
#975=DIRECTION('',(0.,0.,-1.));
#976=DIRECTION('',(0.,1.,0.));
#977=DIRECTION('',(0.,0.,-1.));
#978=DIRECTION('',(0.,1.,0.));
#979=DIRECTION('center_axis',(1.,0.,0.));
#980=DIRECTION('ref_axis',(0.,0.,-1.));
#981=DIRECTION('center_axis',(-0.374606593415914,0.,0.927183854566787));
#982=DIRECTION('ref_axis',(0.927183854566787,0.,0.374606593415914));
#983=DIRECTION('center_axis',(0.,1.,0.));
#984=DIRECTION('ref_axis',(0.,0.,1.));
#985=DIRECTION('',(-1.,0.,0.));
#986=DIRECTION('center_axis',(0.,0.,1.));
#987=DIRECTION('ref_axis',(1.,0.,0.));
#988=DIRECTION('',(1.,0.,0.));
#989=DIRECTION('center_axis',(0.,1.,0.));
#990=DIRECTION('ref_axis',(0.,0.,1.));
#991=CARTESIAN_POINT('',(0.,0.,0.));
#992=CARTESIAN_POINT('Origin',(9.272,0.,3.));
#993=CARTESIAN_POINT('',(9.272,0.,3.));
#994=CARTESIAN_POINT('',(9.272,0.,0.));
#995=CARTESIAN_POINT('',(9.272,0.,20.8642955930547));
#996=CARTESIAN_POINT('',(9.272,104.,3.));
#997=CARTESIAN_POINT('',(9.272,0.,3.));
#998=CARTESIAN_POINT('',(9.272,104.,0.));
#999=CARTESIAN_POINT('',(9.272,104.,2.25));
#1000=CARTESIAN_POINT('',(9.272,0.,0.));
#1001=CARTESIAN_POINT('Origin',(-23.,104.,1.5));
#1002=CARTESIAN_POINT('',(9.27183854566787,104.,3.));
#1003=CARTESIAN_POINT('',(-55.5,104.,3.));
#1004=CARTESIAN_POINT('',(-55.,104.,3.));
#1005=CARTESIAN_POINT('',(-39.25,104.,3.));
#1006=CARTESIAN_POINT('',(-55.,104.,0.));
#1007=CARTESIAN_POINT('',(-55.,104.,0.75));
#1008=CARTESIAN_POINT('',(-39.,104.,0.));
#1009=CARTESIAN_POINT('Origin',(-55.5,0.,3.));
#1010=CARTESIAN_POINT('',(9.27183854566787,0.,3.));
#1011=CARTESIAN_POINT('',(-55.5,0.,3.));
#1012=CARTESIAN_POINT('',(9.27183854566787,0.,3.));
#1013=CARTESIAN_POINT('Origin',(-22.8640807271661,0.,38.7285911861094));
#1014=CARTESIAN_POINT('',(-55.,0.,0.));
#1015=CARTESIAN_POINT('',(-39.,0.,0.));
#1016=CARTESIAN_POINT('',(-55.,0.,63.5220696219342));
#1017=CARTESIAN_POINT('',(-55.,0.,16.));
#1018=CARTESIAN_POINT('',(-20.5093856308971,0.,77.4571823722187));
#1019=CARTESIAN_POINT('',(-37.1986950130993,0.,70.7142636907323));
#1020=CARTESIAN_POINT('',(9.27183854566787,0.,3.74606593415912));
#1021=CARTESIAN_POINT('',(-20.5093856308971,0.,77.4571823722187));
#1022=CARTESIAN_POINT('',(9.27183854566787,0.,3.74606593415912));
#1023=CARTESIAN_POINT('Origin',(-55.,0.,0.));
#1024=CARTESIAN_POINT('',(-55.,78.5,0.));
#1025=CARTESIAN_POINT('',(-55.,0.,0.));
#1026=CARTESIAN_POINT('',(-56.,78.5,0.));
#1027=CARTESIAN_POINT('',(-55.25,78.5,0.));
#1028=CARTESIAN_POINT('',(-56.,120.2,0.));
#1029=CARTESIAN_POINT('',(-56.,0.,0.));
#1030=CARTESIAN_POINT('',(-55.2,121.,0.));
#1031=CARTESIAN_POINT('Origin',(-55.2,120.2,0.));
#1032=CARTESIAN_POINT('',(9.47183854566788,121.,0.));
#1033=CARTESIAN_POINT('',(10.2718385456679,121.,0.));
#1034=CARTESIAN_POINT('',(10.2718385456679,120.2,0.));
#1035=CARTESIAN_POINT('Origin',(9.47183854566788,120.2,0.));
#1036=CARTESIAN_POINT('',(10.2718385456679,-0.2,0.));
#1037=CARTESIAN_POINT('',(10.2718385456679,0.,0.));
#1038=CARTESIAN_POINT('',(9.47183854566788,-1.,0.));
#1039=CARTESIAN_POINT('Origin',(9.47183854566788,-0.2,0.));
#1040=CARTESIAN_POINT('',(-55.2,-1.,0.));
#1041=CARTESIAN_POINT('',(10.2718385456679,-1.,0.));
#1042=CARTESIAN_POINT('',(-56.,-0.2,0.));
#1043=CARTESIAN_POINT('Origin',(-55.2,-0.2,0.));
#1044=CARTESIAN_POINT('',(-56.,25.5,0.));
#1045=CARTESIAN_POINT('',(-56.,0.,0.));
#1046=CARTESIAN_POINT('',(-55.,25.5,0.));
#1047=CARTESIAN_POINT('',(-55.,25.5,0.));
#1048=CARTESIAN_POINT('',(-55.,0.,0.));
#1049=CARTESIAN_POINT('Origin',(-55.5,0.,3.));
#1050=CARTESIAN_POINT('',(9.27183854566787,120.,3.));
#1051=CARTESIAN_POINT('',(9.27183854566787,0.,3.));
#1052=CARTESIAN_POINT('',(-55.,120.,3.));
#1053=CARTESIAN_POINT('',(-39.182040363583,120.,3.));
#1054=CARTESIAN_POINT('',(-55.,0.,3.));
#1055=CARTESIAN_POINT('Origin',(-22.8640807271661,120.,38.7285911861094));
#1056=CARTESIAN_POINT('',(9.27183854566787,120.,3.74606593415912));
#1057=CARTESIAN_POINT('',(9.27183854566787,120.,3.74606593415912));
#1058=CARTESIAN_POINT('',(-20.5093856308971,120.,77.4571823722187));
#1059=CARTESIAN_POINT('',(-20.5093856308971,120.,77.4571823722187));
#1060=CARTESIAN_POINT('',(-55.,120.,63.5220696219342));
#1061=CARTESIAN_POINT('',(-37.1986950130993,120.,70.7142636907323));
#1062=CARTESIAN_POINT('',(-55.,120.,16.));
#1063=CARTESIAN_POINT('Origin',(5.70374327924372,0.,15.2468787823765));
#1064=CARTESIAN_POINT('',(4.77655942467693,9.,14.8722721889606));
#1065=CARTESIAN_POINT('',(5.70374327924372,9.,15.2468787823765));
#1066=CARTESIAN_POINT('',(5.24015135196032,9.,15.0595754856685));
#1067=CARTESIAN_POINT('',(5.70374327924372,95.,15.2468787823765));
#1068=CARTESIAN_POINT('',(5.70374327924386,0.,15.2468787823765));
#1069=CARTESIAN_POINT('',(4.77655942467693,95.,14.8722721889606));
#1070=CARTESIAN_POINT('',(5.47194731560202,95.,15.1532271340225));
#1071=CARTESIAN_POINT('',(4.77655942467693,0.,14.8722721889606));
#1072=CARTESIAN_POINT('Origin',(-20.5093856308971,0.,77.4571823722187));
#1073=CARTESIAN_POINT('',(-20.5093856308971,0.,77.4571823722187));
#1074=CARTESIAN_POINT('',(9.27183854566787,0.,3.74606593415912));
#1075=CARTESIAN_POINT('',(-19.3855658506494,9.,74.6756308085184));
#1076=CARTESIAN_POINT('',(4.02734623784511,9.,16.7266398980941));
#1077=CARTESIAN_POINT('',(-19.3855658506494,95.,74.6756308085184));
#1078=CARTESIAN_POINT('',(-14.0942477186496,95.,61.5791588627625));
#1079=CARTESIAN_POINT('',(-19.3855658506494,0.,74.6756308085184));
#1080=CARTESIAN_POINT('Origin',(-7.21551787911875,9.,45.8884386500142));
#1081=CARTESIAN_POINT('',(-18.4583819960826,9.,75.0502374019343));
#1082=CARTESIAN_POINT('',(-19.1537698870077,9.,74.7692824568723));
#1083=CARTESIAN_POINT('',(-18.4583819960826,9.,75.0502374019343));
#1084=CARTESIAN_POINT('Origin',(-19.3855658506494,0.,74.6756308085184));
#1085=CARTESIAN_POINT('',(-18.4583819960826,95.,75.0502374019343));
#1086=CARTESIAN_POINT('',(-19.3855658506494,95.,74.6756308085184));
#1087=CARTESIAN_POINT('',(-18.4583819960826,0.,75.0502374019343));
#1088=CARTESIAN_POINT('Origin',(-7.21551787911875,95.,45.8884386500142));
#1089=CARTESIAN_POINT('',(-7.31383584195916,95.,47.4665177285724));
#1090=CARTESIAN_POINT('Origin',(-55.2,-0.2,19.6897432050504));
#1091=CARTESIAN_POINT('',(-55.2,-1.,63.6569713253027));
#1092=CARTESIAN_POINT('',(-55.2,-1.,19.6897432050504));
#1093=CARTESIAN_POINT('',(-56.,-0.2,63.6569713253027));
#1094=CARTESIAN_POINT('Origin',(-55.2,-0.2,63.6569713253027));
#1095=CARTESIAN_POINT('',(-56.,-0.2,19.6897432050504));
#1096=CARTESIAN_POINT('Origin',(-45.7671886435627,-0.2,67.4680744966591));
#1097=CARTESIAN_POINT('',(-20.398870178667,-1.,77.7175404618153));
#1098=CARTESIAN_POINT('',(-20.6985554533997,-0.2,78.4592875454687));
#1099=CARTESIAN_POINT('Origin',(-20.398870178667,-0.2,77.7175404618153));
#1100=CARTESIAN_POINT('',(-55.4996852747327,-0.2,64.3987184089561));
#1101=CARTESIAN_POINT('',(-46.0668739182954,-0.2,68.2098215803125));
#1102=CARTESIAN_POINT('Origin',(-55.2,-0.2,63.6569713253027));
#1103=CARTESIAN_POINT('',(-45.7671886435627,-1.,67.4680744966591));
#1104=CARTESIAN_POINT('Origin',(-14.0637218986873,-0.2,62.0374982395949));
#1105=CARTESIAN_POINT('',(9.47183854566788,-1.,3.78494199598713));
#1106=CARTESIAN_POINT('',(10.2135856293213,-0.2,4.08462727071988));
#1107=CARTESIAN_POINT('Origin',(9.47183854566788,-0.2,3.78494199598713));
#1108=CARTESIAN_POINT('',(-19.6571230950135,-0.2,78.017225736548));
#1109=CARTESIAN_POINT('',(-13.3219748150339,-0.2,62.3371835143276));
#1110=CARTESIAN_POINT('Origin',(-20.398870178667,-0.2,77.7175404618153));
#1111=CARTESIAN_POINT('',(-14.0637218986873,-1.,62.0374982395949));
#1112=CARTESIAN_POINT('Origin',(9.47183854566788,-0.2,21.659966326699));
#1113=CARTESIAN_POINT('',(10.2718385456679,-0.2,3.78494199598715));
#1114=CARTESIAN_POINT('',(10.2718385456679,-0.2,21.659966326699));
#1115=CARTESIAN_POINT('Origin',(9.47183854566788,-0.2,3.78494199598715));
#1116=CARTESIAN_POINT('',(9.47183854566788,-1.,21.659966326699));
#1117=CARTESIAN_POINT('Origin',(9.47183854566787,-0.2,3.78494199598715));
#1118=CARTESIAN_POINT('Origin',(9.47183854566787,-0.2,3.78494199598715));
#1119=CARTESIAN_POINT('Origin',(-20.398870178667,-0.2,77.7175404618153));
#1120=CARTESIAN_POINT('Origin',(-20.398870178667,-0.2,77.7175404618153));
#1121=CARTESIAN_POINT('Origin',(-55.2,-0.2,63.6569713253027));
#1122=CARTESIAN_POINT('Origin',(-55.2,-0.2,63.6569713253027));
#1123=CARTESIAN_POINT('Origin',(-56.,0.,0.));
#1124=CARTESIAN_POINT('',(-56.,120.2,63.6569713253027));
#1125=CARTESIAN_POINT('',(-56.,0.,63.6569713253027));
#1126=CARTESIAN_POINT('',(-56.,120.2,19.6897432050504));
#1127=CARTESIAN_POINT('',(-56.,78.5,16.));
#1128=CARTESIAN_POINT('',(-56.,78.5,4.));
#1129=CARTESIAN_POINT('',(-56.,25.5,16.));
#1130=CARTESIAN_POINT('',(-56.,0.,16.));
#1131=CARTESIAN_POINT('',(-56.,25.5,0.));
#1132=CARTESIAN_POINT('Origin',(-55.2,0.,63.6569713253027));
#1133=CARTESIAN_POINT('',(-55.4996852747327,120.2,64.3987184089561));
#1134=CARTESIAN_POINT('',(-55.4996852747327,0.,64.3987184089561));
#1135=CARTESIAN_POINT('Origin',(-55.2,120.2,63.6569713253027));
#1136=CARTESIAN_POINT('Origin',(-56.,0.,64.1965781387766));
#1137=CARTESIAN_POINT('',(-20.6985554533997,120.2,78.4592875454687));
#1138=CARTESIAN_POINT('',(-20.6985554533997,0.,78.4592875454687));
#1139=CARTESIAN_POINT('',(-46.0668739182954,120.2,68.2098215803125));
#1140=CARTESIAN_POINT('Origin',(-20.398870178667,0.,77.7175404618153));
#1141=CARTESIAN_POINT('',(-19.6571230950135,120.2,78.017225736548));
#1142=CARTESIAN_POINT('',(-19.6571230950135,0.,78.017225736548));
#1143=CARTESIAN_POINT('Origin',(-20.398870178667,120.2,77.7175404618153));
#1144=CARTESIAN_POINT('Origin',(-19.9568083697463,0.,78.7589728202014));
#1145=CARTESIAN_POINT('',(10.2135856293213,120.2,4.08462727071988));
#1146=CARTESIAN_POINT('',(10.2135856293213,0.,4.08462727071988));
#1147=CARTESIAN_POINT('',(-13.3219748150339,120.2,62.3371835143276));
#1148=CARTESIAN_POINT('Origin',(9.47183854566787,0.,3.78494199598715));
#1149=CARTESIAN_POINT('',(10.2718385456679,120.2,3.78494199598715));
#1150=CARTESIAN_POINT('',(10.2718385456679,0.,3.78494199598715));
#1151=CARTESIAN_POINT('Origin',(9.47183854566787,120.2,3.78494199598715));
#1152=CARTESIAN_POINT('Origin',(10.2718385456679,0.,3.94044624329731));
#1153=CARTESIAN_POINT('',(10.2718385456679,120.2,21.659966326699));
#1154=CARTESIAN_POINT('Origin',(9.47183854566788,120.2,21.659966326699));
#1155=CARTESIAN_POINT('',(9.47183854566788,121.,3.78494199598715));
#1156=CARTESIAN_POINT('',(9.47183854566788,121.,21.659966326699));
#1157=CARTESIAN_POINT('Origin',(9.47183854566788,120.2,3.78494199598715));
#1158=CARTESIAN_POINT('Origin',(-14.0637218986873,120.2,62.0374982395949));
#1159=CARTESIAN_POINT('',(-20.398870178667,121.,77.7175404618153));
#1160=CARTESIAN_POINT('Origin',(-20.398870178667,120.2,77.7175404618153));
#1161=CARTESIAN_POINT('Origin',(9.47183854566788,120.2,3.78494199598713));
#1162=CARTESIAN_POINT('',(-14.0637218986873,121.,62.0374982395949));
#1163=CARTESIAN_POINT('Origin',(-45.7671886435627,120.2,67.4680744966591));
#1164=CARTESIAN_POINT('',(-55.2,121.,63.6569713253027));
#1165=CARTESIAN_POINT('Origin',(-55.2,120.2,63.6569713253027));
#1166=CARTESIAN_POINT('Origin',(-20.398870178667,120.2,77.7175404618153));
#1167=CARTESIAN_POINT('',(-45.7671886435627,121.,67.4680744966591));
#1168=CARTESIAN_POINT('Origin',(-55.2,120.2,19.6897432050504));
#1169=CARTESIAN_POINT('Origin',(-55.2,120.2,63.6569713253027));
#1170=CARTESIAN_POINT('',(-55.2,121.,19.6897432050504));
#1171=CARTESIAN_POINT('Origin',(-55.2,120.2,63.6569713253027));
#1172=CARTESIAN_POINT('Origin',(-20.398870178667,120.2,77.7175404618153));
#1173=CARTESIAN_POINT('Origin',(9.47183854566787,120.2,3.78494199598715));
#1174=CARTESIAN_POINT('Origin',(-22.8640807271661,121.,39.3794864101007));
#1175=CARTESIAN_POINT('Origin',(-22.8640807271661,-1.,39.3794864101007));
#1176=CARTESIAN_POINT('Origin',(-55.,0.,0.));
#1177=CARTESIAN_POINT('',(-55.,25.5,16.));
#1178=CARTESIAN_POINT('',(-55.,25.5,16.));
#1179=CARTESIAN_POINT('',(-55.,78.5,16.));
#1180=CARTESIAN_POINT('',(-55.,0.,16.));
#1181=CARTESIAN_POINT('',(-55.,78.5,4.));
#1182=CARTESIAN_POINT('',(-55.,0.,63.5220696219342));
#1183=CARTESIAN_POINT('Origin',(9.27183854566787,0.,3.74606593415912));
#1184=CARTESIAN_POINT('Origin',(-55.,0.,63.5220696219342));
#1185=CARTESIAN_POINT('Origin',(-55.5,25.5,8.));
#1186=CARTESIAN_POINT('',(-55.75,25.5,16.));
#1187=CARTESIAN_POINT('Origin',(-56.,0.,16.));
#1188=CARTESIAN_POINT('',(-56.,78.5,16.));
#1189=CARTESIAN_POINT('Origin',(-55.5,78.5,8.));
#1190=UNCERTAINTY_MEASURE_WITH_UNIT(LENGTH_MEASURE(0.01),#1194,
'DISTANCE_ACCURACY_VALUE',
'Maximum model space distance between geometric entities at asserted c
onnectivities');
#1191=UNCERTAINTY_MEASURE_WITH_UNIT(LENGTH_MEASURE(0.01),#1194,
'DISTANCE_ACCURACY_VALUE',
'Maximum model space distance between geometric entities at asserted c
onnectivities');
#1192=(
GEOMETRIC_REPRESENTATION_CONTEXT(3)
GLOBAL_UNCERTAINTY_ASSIGNED_CONTEXT((#1190))
GLOBAL_UNIT_ASSIGNED_CONTEXT((#1194,#1196,#1197))
REPRESENTATION_CONTEXT('','3D')
);
#1193=(
GEOMETRIC_REPRESENTATION_CONTEXT(3)
GLOBAL_UNCERTAINTY_ASSIGNED_CONTEXT((#1191))
GLOBAL_UNIT_ASSIGNED_CONTEXT((#1194,#1196,#1197))
REPRESENTATION_CONTEXT('','3D')
);
#1194=(
LENGTH_UNIT()
NAMED_UNIT(*)
SI_UNIT(.MILLI.,.METRE.)
);
#1195=(
LENGTH_UNIT()
NAMED_UNIT(*)
SI_UNIT($,.METRE.)
);
#1196=(
NAMED_UNIT(*)
PLANE_ANGLE_UNIT()
SI_UNIT($,.RADIAN.)
);
#1197=(
NAMED_UNIT(*)
SI_UNIT($,.STERADIAN.)
SOLID_ANGLE_UNIT()
);
#1198=SHAPE_DEFINITION_REPRESENTATION(#1199,#1200);
#1199=PRODUCT_DEFINITION_SHAPE('',$,#1202);
#1200=SHAPE_REPRESENTATION('',(#723),#1192);
#1201=PRODUCT_DEFINITION_CONTEXT('part definition',#1206,'design');
#1202=PRODUCT_DEFINITION('2026-08-28-11-48-39-080','E-paper Stand',#1203,
#1201);
#1203=PRODUCT_DEFINITION_FORMATION('',$,#1208);
#1204=PRODUCT_RELATED_PRODUCT_CATEGORY('E-paper Stand','E-paper Stand',
(#1208));
#1205=APPLICATION_PROTOCOL_DEFINITION('international standard',
'automotive_design',2009,#1206);
#1206=APPLICATION_CONTEXT(
'Core Data for Automotive Mechanical Design Process');
#1207=PRODUCT_CONTEXT('part definition',#1206,'mechanical');
#1208=PRODUCT('2026-08-28-11-48-39-080','E-paper Stand',$,(#1207));
#1209=PRESENTATION_STYLE_ASSIGNMENT((#1210));
#1210=SURFACE_STYLE_USAGE(.BOTH.,#1211);
#1211=SURFACE_SIDE_STYLE('',(#1212));
#1212=SURFACE_STYLE_FILL_AREA(#1213);
#1213=FILL_AREA_STYLE('Steel - Satin',(#1214));
#1214=FILL_AREA_STYLE_COLOUR('Steel - Satin',#1215);
#1215=COLOUR_RGB('Steel - Satin',0.627450980392157,0.627450980392157,0.627450980392157);
ENDSEC;
END-ISO-10303-21;
