ISO-10303-21;
HEADER;
/* Generated by software containing ST-Developer
 * from STEP Tools, Inc. (www.steptools.com) 
 */

FILE_DESCRIPTION(
/* description */ (''),
/* implementation_level */ '2;1');

FILE_NAME(
/* name */ 'E-paper Stand-Left.step',
/* time_stamp */ '2026-08-28T12:40:22+09:00',
/* author */ (''),
/* organization */ (''),
/* preprocessor_version */ 'ST-DEVELOPER v20.1',
/* originating_system */ 'Autodesk Translation Framework v15.8.0.0',
/* authorisation */ '');

FILE_SCHEMA (('AUTOMOTIVE_DESIGN { 1 0 10303 214 3 1 1 }'));
ENDSEC;

DATA;
#10=MECHANICAL_DESIGN_GEOMETRIC_PRESENTATION_REPRESENTATION('',(#13),#1312);
#11=SHAPE_REPRESENTATION_RELATIONSHIP('SRR','None',#1319,#12);
#12=ADVANCED_BREP_SHAPE_REPRESENTATION('',(#14),#1311);
#13=STYLED_ITEM('',(#1328),#14);
#14=MANIFOLD_SOLID_BREP('Left',#824);
#15=FACE_BOUND('',#70,.T.);
#16=FACE_BOUND('',#73,.T.);
#17=FACE_BOUND('',#98,.T.);
#18=FACE_BOUND('',#106,.T.);
#19=FACE_OUTER_BOUND('',#62,.T.);
#20=FACE_OUTER_BOUND('',#63,.T.);
#21=FACE_OUTER_BOUND('',#64,.T.);
#22=FACE_OUTER_BOUND('',#65,.T.);
#23=FACE_OUTER_BOUND('',#66,.T.);
#24=FACE_OUTER_BOUND('',#67,.T.);
#25=FACE_OUTER_BOUND('',#68,.T.);
#26=FACE_OUTER_BOUND('',#69,.T.);
#27=FACE_OUTER_BOUND('',#71,.T.);
#28=FACE_OUTER_BOUND('',#72,.T.);
#29=FACE_OUTER_BOUND('',#74,.T.);
#30=FACE_OUTER_BOUND('',#75,.T.);
#31=FACE_OUTER_BOUND('',#76,.T.);
#32=FACE_OUTER_BOUND('',#77,.T.);
#33=FACE_OUTER_BOUND('',#78,.T.);
#34=FACE_OUTER_BOUND('',#79,.T.);
#35=FACE_OUTER_BOUND('',#80,.T.);
#36=FACE_OUTER_BOUND('',#81,.T.);
#37=FACE_OUTER_BOUND('',#82,.T.);
#38=FACE_OUTER_BOUND('',#83,.T.);
#39=FACE_OUTER_BOUND('',#84,.T.);
#40=FACE_OUTER_BOUND('',#85,.T.);
#41=FACE_OUTER_BOUND('',#86,.T.);
#42=FACE_OUTER_BOUND('',#87,.T.);
#43=FACE_OUTER_BOUND('',#88,.T.);
#44=FACE_OUTER_BOUND('',#89,.T.);
#45=FACE_OUTER_BOUND('',#90,.T.);
#46=FACE_OUTER_BOUND('',#91,.T.);
#47=FACE_OUTER_BOUND('',#92,.T.);
#48=FACE_OUTER_BOUND('',#93,.T.);
#49=FACE_OUTER_BOUND('',#94,.T.);
#50=FACE_OUTER_BOUND('',#95,.T.);
#51=FACE_OUTER_BOUND('',#96,.T.);
#52=FACE_OUTER_BOUND('',#97,.T.);
#53=FACE_OUTER_BOUND('',#99,.T.);
#54=FACE_OUTER_BOUND('',#100,.T.);
#55=FACE_OUTER_BOUND('',#101,.T.);
#56=FACE_OUTER_BOUND('',#102,.T.);
#57=FACE_OUTER_BOUND('',#103,.T.);
#58=FACE_OUTER_BOUND('',#104,.T.);
#59=FACE_OUTER_BOUND('',#105,.T.);
#60=FACE_OUTER_BOUND('',#107,.T.);
#61=FACE_OUTER_BOUND('',#108,.T.);
#62=EDGE_LOOP('',(#516,#517,#518,#519));
#63=EDGE_LOOP('',(#520,#521,#522,#523));
#64=EDGE_LOOP('',(#524,#525,#526,#527));
#65=EDGE_LOOP('',(#528,#529,#530,#531));
#66=EDGE_LOOP('',(#532,#533,#534,#535));
#67=EDGE_LOOP('',(#536,#537,#538,#539));
#68=EDGE_LOOP('',(#540,#541,#542,#543));
#69=EDGE_LOOP('',(#544,#545,#546,#547));
#70=EDGE_LOOP('',(#548,#549,#550,#551));
#71=EDGE_LOOP('',(#552,#553,#554,#555));
#72=EDGE_LOOP('',(#556,#557,#558,#559));
#73=EDGE_LOOP('',(#560,#561,#562,#563));
#74=EDGE_LOOP('',(#564,#565,#566,#567,#568,#569,#570,#571,#572,#573,#574));
#75=EDGE_LOOP('',(#575,#576,#577,#578));
#76=EDGE_LOOP('',(#579,#580,#581,#582));
#77=EDGE_LOOP('',(#583,#584,#585,#586));
#78=EDGE_LOOP('',(#587,#588,#589,#590));
#79=EDGE_LOOP('',(#591,#592,#593,#594));
#80=EDGE_LOOP('',(#595,#596,#597,#598));
#81=EDGE_LOOP('',(#599,#600,#601,#602));
#82=EDGE_LOOP('',(#603,#604,#605,#606,#607,#608,#609,#610,#611,#612,#613,
#614,#615,#616));
#83=EDGE_LOOP('',(#617,#618,#619,#620));
#84=EDGE_LOOP('',(#621,#622,#623,#624));
#85=EDGE_LOOP('',(#625,#626,#627,#628,#629,#630,#631,#632,#633,#634,#635,
#636));
#86=EDGE_LOOP('',(#637,#638,#639,#640,#641,#642,#643,#644,#645,#646,#647));
#87=EDGE_LOOP('',(#648,#649,#650,#651));
#88=EDGE_LOOP('',(#652,#653,#654,#655));
#89=EDGE_LOOP('',(#656,#657,#658,#659));
#90=EDGE_LOOP('',(#660,#661,#662,#663));
#91=EDGE_LOOP('',(#664,#665,#666,#667));
#92=EDGE_LOOP('',(#668,#669,#670,#671));
#93=EDGE_LOOP('',(#672,#673,#674,#675));
#94=EDGE_LOOP('',(#676,#677,#678,#679));
#95=EDGE_LOOP('',(#680,#681,#682,#683));
#96=EDGE_LOOP('',(#684,#685,#686,#687));
#97=EDGE_LOOP('',(#688,#689,#690,#691));
#98=EDGE_LOOP('',(#692,#693,#694,#695));
#99=EDGE_LOOP('',(#696,#697,#698,#699));
#100=EDGE_LOOP('',(#700,#701,#702,#703,#704,#705));
#101=EDGE_LOOP('',(#706,#707,#708,#709));
#102=EDGE_LOOP('',(#710,#711,#712,#713));
#103=EDGE_LOOP('',(#714,#715,#716,#717));
#104=EDGE_LOOP('',(#718,#719,#720,#721));
#105=EDGE_LOOP('',(#722,#723,#724,#725));
#106=EDGE_LOOP('',(#726,#727,#728,#729));
#107=EDGE_LOOP('',(#730,#731,#732,#733));
#108=EDGE_LOOP('',(#734,#735,#736,#737));
#109=LINE('',#1084,#220);
#110=LINE('',#1086,#221);
#111=LINE('',#1088,#222);
#112=LINE('',#1089,#223);
#113=LINE('',#1093,#224);
#114=LINE('',#1095,#225);
#115=LINE('',#1097,#226);
#116=LINE('',#1098,#227);
#117=LINE('',#1101,#228);
#118=LINE('',#1103,#229);
#119=LINE('',#1104,#230);
#120=LINE('',#1107,#231);
#121=LINE('',#1109,#232);
#122=LINE('',#1110,#233);
#123=LINE('',#1114,#234);
#124=LINE('',#1116,#235);
#125=LINE('',#1118,#236);
#126=LINE('',#1119,#237);
#127=LINE('',#1123,#238);
#128=LINE('',#1125,#239);
#129=LINE('',#1127,#240);
#130=LINE('',#1128,#241);
#131=LINE('',#1131,#242);
#132=LINE('',#1133,#243);
#133=LINE('',#1134,#244);
#134=LINE('',#1137,#245);
#135=LINE('',#1138,#246);
#136=LINE('',#1140,#247);
#137=LINE('',#1141,#248);
#138=LINE('',#1144,#249);
#139=LINE('',#1146,#250);
#140=LINE('',#1147,#251);
#141=LINE('',#1150,#252);
#142=LINE('',#1151,#253);
#143=LINE('',#1153,#254);
#144=LINE('',#1155,#255);
#145=LINE('',#1156,#256);
#146=LINE('',#1160,#257);
#147=LINE('',#1162,#258);
#148=LINE('',#1164,#259);
#149=LINE('',#1166,#260);
#150=LINE('',#1168,#261);
#151=LINE('',#1170,#262);
#152=LINE('',#1172,#263);
#153=LINE('',#1174,#264);
#154=LINE('',#1176,#265);
#155=LINE('',#1178,#266);
#156=LINE('',#1179,#267);
#157=LINE('',#1182,#268);
#158=LINE('',#1183,#269);
#159=LINE('',#1185,#270);
#160=LINE('',#1188,#271);
#161=LINE('',#1190,#272);
#162=LINE('',#1194,#273);
#163=LINE('',#1195,#274);
#164=LINE('',#1197,#275);
#165=LINE('',#1199,#276);
#166=LINE('',#1201,#277);
#167=LINE('',#1202,#278);
#168=LINE('',#1204,#279);
#169=LINE('',#1206,#280);
#170=LINE('',#1208,#281);
#171=LINE('',#1209,#282);
#172=LINE('',#1211,#283);
#173=LINE('',#1214,#284);
#174=LINE('',#1216,#285);
#175=LINE('',#1217,#286);
#176=LINE('',#1220,#287);
#177=LINE('',#1221,#288);
#178=LINE('',#1224,#289);
#179=LINE('',#1226,#290);
#180=LINE('',#1228,#291);
#181=LINE('',#1230,#292);
#182=LINE('',#1232,#293);
#183=LINE('',#1234,#294);
#184=LINE('',#1236,#295);
#185=LINE('',#1238,#296);
#186=LINE('',#1239,#297);
#187=LINE('',#1243,#298);
#188=LINE('',#1245,#299);
#189=LINE('',#1247,#300);
#190=LINE('',#1248,#301);
#191=LINE('',#1252,#302);
#192=LINE('',#1254,#303);
#193=LINE('',#1256,#304);
#194=LINE('',#1257,#305);
#195=LINE('',#1260,#306);
#196=LINE('',#1262,#307);
#197=LINE('',#1263,#308);
#198=LINE('',#1266,#309);
#199=LINE('',#1268,#310);
#200=LINE('',#1269,#311);
#201=LINE('',#1272,#312);
#202=LINE('',#1273,#313);
#203=LINE('',#1276,#314);
#204=LINE('',#1277,#315);
#205=LINE('',#1279,#316);
#206=LINE('',#1282,#317);
#207=LINE('',#1284,#318);
#208=LINE('',#1285,#319);
#209=LINE('',#1287,#320);
#210=LINE('',#1289,#321);
#211=LINE('',#1291,#322);
#212=LINE('',#1292,#323);
#213=LINE('',#1294,#324);
#214=LINE('',#1296,#325);
#215=LINE('',#1299,#326);
#216=LINE('',#1301,#327);
#217=LINE('',#1303,#328);
#218=LINE('',#1305,#329);
#219=LINE('',#1307,#330);
#220=VECTOR('',#885,10.);
#221=VECTOR('',#886,10.);
#222=VECTOR('',#887,10.);
#223=VECTOR('',#888,10.);
#224=VECTOR('',#891,10.);
#225=VECTOR('',#892,10.);
#226=VECTOR('',#893,10.);
#227=VECTOR('',#894,10.);
#228=VECTOR('',#897,10.);
#229=VECTOR('',#898,10.);
#230=VECTOR('',#899,10.);
#231=VECTOR('',#902,10.);
#232=VECTOR('',#903,10.);
#233=VECTOR('',#904,10.);
#234=VECTOR('',#907,10.);
#235=VECTOR('',#908,10.);
#236=VECTOR('',#909,10.);
#237=VECTOR('',#910,10.);
#238=VECTOR('',#913,10.);
#239=VECTOR('',#914,10.);
#240=VECTOR('',#915,10.);
#241=VECTOR('',#916,10.);
#242=VECTOR('',#919,10.);
#243=VECTOR('',#920,10.);
#244=VECTOR('',#921,10.);
#245=VECTOR('',#924,10.);
#246=VECTOR('',#925,10.);
#247=VECTOR('',#926,10.);
#248=VECTOR('',#927,10.);
#249=VECTOR('',#930,10.);
#250=VECTOR('',#931,10.);
#251=VECTOR('',#932,10.);
#252=VECTOR('',#935,10.);
#253=VECTOR('',#936,10.);
#254=VECTOR('',#937,10.);
#255=VECTOR('',#938,10.);
#256=VECTOR('',#939,10.);
#257=VECTOR('',#942,10.);
#258=VECTOR('',#943,10.);
#259=VECTOR('',#944,10.);
#260=VECTOR('',#945,10.);
#261=VECTOR('',#946,10.);
#262=VECTOR('',#947,10.);
#263=VECTOR('',#948,10.);
#264=VECTOR('',#949,10.);
#265=VECTOR('',#950,10.);
#266=VECTOR('',#951,10.);
#267=VECTOR('',#952,10.);
#268=VECTOR('',#955,10.);
#269=VECTOR('',#956,10.);
#270=VECTOR('',#959,10.);
#271=VECTOR('',#964,10.);
#272=VECTOR('',#967,10.);
#273=VECTOR('',#972,10.);
#274=VECTOR('',#973,10.);
#275=VECTOR('',#976,10.);
#276=VECTOR('',#977,10.);
#277=VECTOR('',#978,10.);
#278=VECTOR('',#979,10.);
#279=VECTOR('',#980,10.);
#280=VECTOR('',#981,10.);
#281=VECTOR('',#982,10.);
#282=VECTOR('',#983,10.);
#283=VECTOR('',#986,10.);
#284=VECTOR('',#989,10.);
#285=VECTOR('',#990,10.);
#286=VECTOR('',#991,10.);
#287=VECTOR('',#994,10.);
#288=VECTOR('',#995,10.);
#289=VECTOR('',#998,10.);
#290=VECTOR('',#999,10.);
#291=VECTOR('',#1000,10.);
#292=VECTOR('',#1001,10.);
#293=VECTOR('',#1002,10.);
#294=VECTOR('',#1003,10.);
#295=VECTOR('',#1004,10.);
#296=VECTOR('',#1005,10.);
#297=VECTOR('',#1006,10.);
#298=VECTOR('',#1009,10.);
#299=VECTOR('',#1010,10.);
#300=VECTOR('',#1011,10.);
#301=VECTOR('',#1012,10.);
#302=VECTOR('',#1015,10.);
#303=VECTOR('',#1016,10.);
#304=VECTOR('',#1017,10.);
#305=VECTOR('',#1018,10.);
#306=VECTOR('',#1021,10.);
#307=VECTOR('',#1022,10.);
#308=VECTOR('',#1023,10.);
#309=VECTOR('',#1026,10.);
#310=VECTOR('',#1027,10.);
#311=VECTOR('',#1028,10.);
#312=VECTOR('',#1031,10.);
#313=VECTOR('',#1032,10.);
#314=VECTOR('',#1035,10.);
#315=VECTOR('',#1036,10.);
#316=VECTOR('',#1039,10.);
#317=VECTOR('',#1042,10.);
#318=VECTOR('',#1043,10.);
#319=VECTOR('',#1044,10.);
#320=VECTOR('',#1047,10.);
#321=VECTOR('',#1050,10.);
#322=VECTOR('',#1053,10.);
#323=VECTOR('',#1054,10.);
#324=VECTOR('',#1057,10.);
#325=VECTOR('',#1060,10.);
#326=VECTOR('',#1065,10.);
#327=VECTOR('',#1068,10.);
#328=VECTOR('',#1071,10.);
#329=VECTOR('',#1074,10.);
#330=VECTOR('',#1077,10.);
#331=VERTEX_POINT('',#1082);
#332=VERTEX_POINT('',#1083);
#333=VERTEX_POINT('',#1085);
#334=VERTEX_POINT('',#1087);
#335=VERTEX_POINT('',#1091);
#336=VERTEX_POINT('',#1092);
#337=VERTEX_POINT('',#1094);
#338=VERTEX_POINT('',#1096);
#339=VERTEX_POINT('',#1100);
#340=VERTEX_POINT('',#1102);
#341=VERTEX_POINT('',#1106);
#342=VERTEX_POINT('',#1108);
#343=VERTEX_POINT('',#1112);
#344=VERTEX_POINT('',#1113);
#345=VERTEX_POINT('',#1115);
#346=VERTEX_POINT('',#1117);
#347=VERTEX_POINT('',#1121);
#348=VERTEX_POINT('',#1122);
#349=VERTEX_POINT('',#1124);
#350=VERTEX_POINT('',#1126);
#351=VERTEX_POINT('',#1130);
#352=VERTEX_POINT('',#1132);
#353=VERTEX_POINT('',#1136);
#354=VERTEX_POINT('',#1139);
#355=VERTEX_POINT('',#1143);
#356=VERTEX_POINT('',#1145);
#357=VERTEX_POINT('',#1149);
#358=VERTEX_POINT('',#1152);
#359=VERTEX_POINT('',#1154);
#360=VERTEX_POINT('',#1158);
#361=VERTEX_POINT('',#1159);
#362=VERTEX_POINT('',#1161);
#363=VERTEX_POINT('',#1163);
#364=VERTEX_POINT('',#1165);
#365=VERTEX_POINT('',#1167);
#366=VERTEX_POINT('',#1169);
#367=VERTEX_POINT('',#1171);
#368=VERTEX_POINT('',#1173);
#369=VERTEX_POINT('',#1175);
#370=VERTEX_POINT('',#1177);
#371=VERTEX_POINT('',#1181);
#372=VERTEX_POINT('',#1193);
#373=VERTEX_POINT('',#1198);
#374=VERTEX_POINT('',#1200);
#375=VERTEX_POINT('',#1203);
#376=VERTEX_POINT('',#1205);
#377=VERTEX_POINT('',#1207);
#378=VERTEX_POINT('',#1213);
#379=VERTEX_POINT('',#1215);
#380=VERTEX_POINT('',#1219);
#381=VERTEX_POINT('',#1223);
#382=VERTEX_POINT('',#1225);
#383=VERTEX_POINT('',#1227);
#384=VERTEX_POINT('',#1229);
#385=VERTEX_POINT('',#1231);
#386=VERTEX_POINT('',#1233);
#387=VERTEX_POINT('',#1235);
#388=VERTEX_POINT('',#1237);
#389=VERTEX_POINT('',#1241);
#390=VERTEX_POINT('',#1242);
#391=VERTEX_POINT('',#1244);
#392=VERTEX_POINT('',#1246);
#393=VERTEX_POINT('',#1250);
#394=VERTEX_POINT('',#1251);
#395=VERTEX_POINT('',#1253);
#396=VERTEX_POINT('',#1255);
#397=VERTEX_POINT('',#1259);
#398=VERTEX_POINT('',#1261);
#399=VERTEX_POINT('',#1265);
#400=VERTEX_POINT('',#1267);
#401=VERTEX_POINT('',#1271);
#402=VERTEX_POINT('',#1275);
#403=VERTEX_POINT('',#1281);
#404=VERTEX_POINT('',#1283);
#405=EDGE_CURVE('',#331,#332,#109,.T.);
#406=EDGE_CURVE('',#333,#331,#110,.T.);
#407=EDGE_CURVE('',#334,#333,#111,.T.);
#408=EDGE_CURVE('',#332,#334,#112,.T.);
#409=EDGE_CURVE('',#335,#336,#113,.T.);
#410=EDGE_CURVE('',#337,#335,#114,.T.);
#411=EDGE_CURVE('',#338,#337,#115,.T.);
#412=EDGE_CURVE('',#336,#338,#116,.T.);
#413=EDGE_CURVE('',#332,#339,#117,.T.);
#414=EDGE_CURVE('',#340,#339,#118,.T.);
#415=EDGE_CURVE('',#331,#340,#119,.T.);
#416=EDGE_CURVE('',#338,#341,#120,.T.);
#417=EDGE_CURVE('',#342,#341,#121,.T.);
#418=EDGE_CURVE('',#336,#342,#122,.T.);
#419=EDGE_CURVE('',#343,#344,#123,.T.);
#420=EDGE_CURVE('',#345,#343,#124,.T.);
#421=EDGE_CURVE('',#346,#345,#125,.T.);
#422=EDGE_CURVE('',#344,#346,#126,.T.);
#423=EDGE_CURVE('',#347,#348,#127,.T.);
#424=EDGE_CURVE('',#349,#347,#128,.T.);
#425=EDGE_CURVE('',#350,#349,#129,.T.);
#426=EDGE_CURVE('',#348,#350,#130,.T.);
#427=EDGE_CURVE('',#351,#343,#131,.T.);
#428=EDGE_CURVE('',#352,#351,#132,.T.);
#429=EDGE_CURVE('',#345,#352,#133,.T.);
#430=EDGE_CURVE('',#353,#352,#134,.T.);
#431=EDGE_CURVE('',#346,#353,#135,.T.);
#432=EDGE_CURVE('',#340,#354,#136,.T.);
#433=EDGE_CURVE('',#354,#333,#137,.T.);
#434=EDGE_CURVE('',#355,#347,#138,.T.);
#435=EDGE_CURVE('',#356,#355,#139,.T.);
#436=EDGE_CURVE('',#349,#356,#140,.T.);
#437=EDGE_CURVE('',#357,#356,#141,.T.);
#438=EDGE_CURVE('',#350,#357,#142,.T.);
#439=EDGE_CURVE('',#335,#358,#143,.T.);
#440=EDGE_CURVE('',#358,#359,#144,.T.);
#441=EDGE_CURVE('',#359,#337,#145,.T.);
#442=EDGE_CURVE('',#360,#361,#146,.T.);
#443=EDGE_CURVE('',#362,#360,#147,.T.);
#444=EDGE_CURVE('',#363,#362,#148,.T.);
#445=EDGE_CURVE('',#363,#364,#149,.T.);
#446=EDGE_CURVE('',#365,#364,#150,.T.);
#447=EDGE_CURVE('',#366,#365,#151,.T.);
#448=EDGE_CURVE('',#366,#367,#152,.T.);
#449=EDGE_CURVE('',#367,#368,#153,.T.);
#450=EDGE_CURVE('',#368,#369,#154,.T.);
#451=EDGE_CURVE('',#369,#370,#155,.T.);
#452=EDGE_CURVE('',#370,#361,#156,.T.);
#453=EDGE_CURVE('',#371,#354,#157,.T.);
#454=EDGE_CURVE('',#334,#371,#158,.T.);
#455=EDGE_CURVE('',#339,#371,#159,.T.);
#456=EDGE_CURVE('',#341,#359,#160,.T.);
#457=EDGE_CURVE('',#358,#342,#161,.T.);
#458=EDGE_CURVE('',#372,#353,#162,.T.);
#459=EDGE_CURVE('',#344,#372,#163,.T.);
#460=EDGE_CURVE('',#355,#372,#164,.T.);
#461=EDGE_CURVE('',#348,#373,#165,.T.);
#462=EDGE_CURVE('',#374,#373,#166,.T.);
#463=EDGE_CURVE('',#360,#374,#167,.T.);
#464=EDGE_CURVE('',#361,#375,#168,.T.);
#465=EDGE_CURVE('',#376,#375,#169,.T.);
#466=EDGE_CURVE('',#376,#377,#170,.T.);
#467=EDGE_CURVE('',#351,#377,#171,.T.);
#468=EDGE_CURVE('',#373,#357,#172,.T.);
#469=EDGE_CURVE('',#378,#376,#173,.T.);
#470=EDGE_CURVE('',#378,#379,#174,.T.);
#471=EDGE_CURVE('',#377,#379,#175,.T.);
#472=EDGE_CURVE('',#379,#380,#176,.T.);
#473=EDGE_CURVE('',#380,#374,#177,.T.);
#474=EDGE_CURVE('',#375,#381,#178,.T.);
#475=EDGE_CURVE('',#381,#382,#179,.T.);
#476=EDGE_CURVE('',#382,#383,#180,.T.);
#477=EDGE_CURVE('',#383,#384,#181,.T.);
#478=EDGE_CURVE('',#384,#385,#182,.T.);
#479=EDGE_CURVE('',#385,#386,#183,.T.);
#480=EDGE_CURVE('',#386,#387,#184,.T.);
#481=EDGE_CURVE('',#387,#388,#185,.T.);
#482=EDGE_CURVE('',#388,#378,#186,.T.);
#483=EDGE_CURVE('',#389,#390,#187,.T.);
#484=EDGE_CURVE('',#391,#389,#188,.T.);
#485=EDGE_CURVE('',#392,#391,#189,.T.);
#486=EDGE_CURVE('',#390,#392,#190,.T.);
#487=EDGE_CURVE('',#393,#394,#191,.T.);
#488=EDGE_CURVE('',#395,#393,#192,.T.);
#489=EDGE_CURVE('',#396,#395,#193,.T.);
#490=EDGE_CURVE('',#394,#396,#194,.T.);
#491=EDGE_CURVE('',#394,#397,#195,.T.);
#492=EDGE_CURVE('',#398,#397,#196,.T.);
#493=EDGE_CURVE('',#393,#398,#197,.T.);
#494=EDGE_CURVE('',#399,#389,#198,.T.);
#495=EDGE_CURVE('',#400,#399,#199,.T.);
#496=EDGE_CURVE('',#391,#400,#200,.T.);
#497=EDGE_CURVE('',#401,#400,#201,.T.);
#498=EDGE_CURVE('',#392,#401,#202,.T.);
#499=EDGE_CURVE('',#402,#401,#203,.T.);
#500=EDGE_CURVE('',#390,#402,#204,.T.);
#501=EDGE_CURVE('',#402,#399,#205,.T.);
#502=EDGE_CURVE('',#403,#395,#206,.T.);
#503=EDGE_CURVE('',#404,#403,#207,.T.);
#504=EDGE_CURVE('',#396,#404,#208,.T.);
#505=EDGE_CURVE('',#397,#404,#209,.T.);
#506=EDGE_CURVE('',#398,#403,#210,.T.);
#507=EDGE_CURVE('',#364,#387,#211,.T.);
#508=EDGE_CURVE('',#365,#386,#212,.T.);
#509=EDGE_CURVE('',#362,#380,#213,.T.);
#510=EDGE_CURVE('',#363,#388,#214,.T.);
#511=EDGE_CURVE('',#366,#385,#215,.T.);
#512=EDGE_CURVE('',#367,#384,#216,.T.);
#513=EDGE_CURVE('',#368,#383,#217,.T.);
#514=EDGE_CURVE('',#369,#382,#218,.T.);
#515=EDGE_CURVE('',#370,#381,#219,.T.);
#516=ORIENTED_EDGE('',*,*,#405,.F.);
#517=ORIENTED_EDGE('',*,*,#406,.F.);
#518=ORIENTED_EDGE('',*,*,#407,.F.);
#519=ORIENTED_EDGE('',*,*,#408,.F.);
#520=ORIENTED_EDGE('',*,*,#409,.F.);
#521=ORIENTED_EDGE('',*,*,#410,.F.);
#522=ORIENTED_EDGE('',*,*,#411,.F.);
#523=ORIENTED_EDGE('',*,*,#412,.F.);
#524=ORIENTED_EDGE('',*,*,#405,.T.);
#525=ORIENTED_EDGE('',*,*,#413,.T.);
#526=ORIENTED_EDGE('',*,*,#414,.F.);
#527=ORIENTED_EDGE('',*,*,#415,.F.);
#528=ORIENTED_EDGE('',*,*,#412,.T.);
#529=ORIENTED_EDGE('',*,*,#416,.T.);
#530=ORIENTED_EDGE('',*,*,#417,.F.);
#531=ORIENTED_EDGE('',*,*,#418,.F.);
#532=ORIENTED_EDGE('',*,*,#419,.F.);
#533=ORIENTED_EDGE('',*,*,#420,.F.);
#534=ORIENTED_EDGE('',*,*,#421,.F.);
#535=ORIENTED_EDGE('',*,*,#422,.F.);
#536=ORIENTED_EDGE('',*,*,#423,.F.);
#537=ORIENTED_EDGE('',*,*,#424,.F.);
#538=ORIENTED_EDGE('',*,*,#425,.F.);
#539=ORIENTED_EDGE('',*,*,#426,.F.);
#540=ORIENTED_EDGE('',*,*,#420,.T.);
#541=ORIENTED_EDGE('',*,*,#427,.F.);
#542=ORIENTED_EDGE('',*,*,#428,.F.);
#543=ORIENTED_EDGE('',*,*,#429,.F.);
#544=ORIENTED_EDGE('',*,*,#421,.T.);
#545=ORIENTED_EDGE('',*,*,#429,.T.);
#546=ORIENTED_EDGE('',*,*,#430,.F.);
#547=ORIENTED_EDGE('',*,*,#431,.F.);
#548=ORIENTED_EDGE('',*,*,#406,.T.);
#549=ORIENTED_EDGE('',*,*,#415,.T.);
#550=ORIENTED_EDGE('',*,*,#432,.T.);
#551=ORIENTED_EDGE('',*,*,#433,.T.);
#552=ORIENTED_EDGE('',*,*,#424,.T.);
#553=ORIENTED_EDGE('',*,*,#434,.F.);
#554=ORIENTED_EDGE('',*,*,#435,.F.);
#555=ORIENTED_EDGE('',*,*,#436,.F.);
#556=ORIENTED_EDGE('',*,*,#425,.T.);
#557=ORIENTED_EDGE('',*,*,#436,.T.);
#558=ORIENTED_EDGE('',*,*,#437,.F.);
#559=ORIENTED_EDGE('',*,*,#438,.F.);
#560=ORIENTED_EDGE('',*,*,#410,.T.);
#561=ORIENTED_EDGE('',*,*,#439,.T.);
#562=ORIENTED_EDGE('',*,*,#440,.T.);
#563=ORIENTED_EDGE('',*,*,#441,.T.);
#564=ORIENTED_EDGE('',*,*,#442,.F.);
#565=ORIENTED_EDGE('',*,*,#443,.F.);
#566=ORIENTED_EDGE('',*,*,#444,.F.);
#567=ORIENTED_EDGE('',*,*,#445,.T.);
#568=ORIENTED_EDGE('',*,*,#446,.F.);
#569=ORIENTED_EDGE('',*,*,#447,.F.);
#570=ORIENTED_EDGE('',*,*,#448,.T.);
#571=ORIENTED_EDGE('',*,*,#449,.T.);
#572=ORIENTED_EDGE('',*,*,#450,.T.);
#573=ORIENTED_EDGE('',*,*,#451,.T.);
#574=ORIENTED_EDGE('',*,*,#452,.T.);
#575=ORIENTED_EDGE('',*,*,#407,.T.);
#576=ORIENTED_EDGE('',*,*,#433,.F.);
#577=ORIENTED_EDGE('',*,*,#453,.F.);
#578=ORIENTED_EDGE('',*,*,#454,.F.);
#579=ORIENTED_EDGE('',*,*,#408,.T.);
#580=ORIENTED_EDGE('',*,*,#454,.T.);
#581=ORIENTED_EDGE('',*,*,#455,.F.);
#582=ORIENTED_EDGE('',*,*,#413,.F.);
#583=ORIENTED_EDGE('',*,*,#414,.T.);
#584=ORIENTED_EDGE('',*,*,#455,.T.);
#585=ORIENTED_EDGE('',*,*,#453,.T.);
#586=ORIENTED_EDGE('',*,*,#432,.F.);
#587=ORIENTED_EDGE('',*,*,#411,.T.);
#588=ORIENTED_EDGE('',*,*,#441,.F.);
#589=ORIENTED_EDGE('',*,*,#456,.F.);
#590=ORIENTED_EDGE('',*,*,#416,.F.);
#591=ORIENTED_EDGE('',*,*,#409,.T.);
#592=ORIENTED_EDGE('',*,*,#418,.T.);
#593=ORIENTED_EDGE('',*,*,#457,.F.);
#594=ORIENTED_EDGE('',*,*,#439,.F.);
#595=ORIENTED_EDGE('',*,*,#457,.T.);
#596=ORIENTED_EDGE('',*,*,#417,.T.);
#597=ORIENTED_EDGE('',*,*,#456,.T.);
#598=ORIENTED_EDGE('',*,*,#440,.F.);
#599=ORIENTED_EDGE('',*,*,#422,.T.);
#600=ORIENTED_EDGE('',*,*,#431,.T.);
#601=ORIENTED_EDGE('',*,*,#458,.F.);
#602=ORIENTED_EDGE('',*,*,#459,.F.);
#603=ORIENTED_EDGE('',*,*,#427,.T.);
#604=ORIENTED_EDGE('',*,*,#419,.T.);
#605=ORIENTED_EDGE('',*,*,#459,.T.);
#606=ORIENTED_EDGE('',*,*,#460,.F.);
#607=ORIENTED_EDGE('',*,*,#434,.T.);
#608=ORIENTED_EDGE('',*,*,#423,.T.);
#609=ORIENTED_EDGE('',*,*,#461,.T.);
#610=ORIENTED_EDGE('',*,*,#462,.F.);
#611=ORIENTED_EDGE('',*,*,#463,.F.);
#612=ORIENTED_EDGE('',*,*,#442,.T.);
#613=ORIENTED_EDGE('',*,*,#464,.T.);
#614=ORIENTED_EDGE('',*,*,#465,.F.);
#615=ORIENTED_EDGE('',*,*,#466,.T.);
#616=ORIENTED_EDGE('',*,*,#467,.F.);
#617=ORIENTED_EDGE('',*,*,#426,.T.);
#618=ORIENTED_EDGE('',*,*,#438,.T.);
#619=ORIENTED_EDGE('',*,*,#468,.F.);
#620=ORIENTED_EDGE('',*,*,#461,.F.);
#621=ORIENTED_EDGE('',*,*,#469,.F.);
#622=ORIENTED_EDGE('',*,*,#470,.T.);
#623=ORIENTED_EDGE('',*,*,#471,.F.);
#624=ORIENTED_EDGE('',*,*,#466,.F.);
#625=ORIENTED_EDGE('',*,*,#472,.T.);
#626=ORIENTED_EDGE('',*,*,#473,.T.);
#627=ORIENTED_EDGE('',*,*,#462,.T.);
#628=ORIENTED_EDGE('',*,*,#468,.T.);
#629=ORIENTED_EDGE('',*,*,#437,.T.);
#630=ORIENTED_EDGE('',*,*,#435,.T.);
#631=ORIENTED_EDGE('',*,*,#460,.T.);
#632=ORIENTED_EDGE('',*,*,#458,.T.);
#633=ORIENTED_EDGE('',*,*,#430,.T.);
#634=ORIENTED_EDGE('',*,*,#428,.T.);
#635=ORIENTED_EDGE('',*,*,#467,.T.);
#636=ORIENTED_EDGE('',*,*,#471,.T.);
#637=ORIENTED_EDGE('',*,*,#469,.T.);
#638=ORIENTED_EDGE('',*,*,#465,.T.);
#639=ORIENTED_EDGE('',*,*,#474,.T.);
#640=ORIENTED_EDGE('',*,*,#475,.T.);
#641=ORIENTED_EDGE('',*,*,#476,.T.);
#642=ORIENTED_EDGE('',*,*,#477,.T.);
#643=ORIENTED_EDGE('',*,*,#478,.T.);
#644=ORIENTED_EDGE('',*,*,#479,.T.);
#645=ORIENTED_EDGE('',*,*,#480,.T.);
#646=ORIENTED_EDGE('',*,*,#481,.T.);
#647=ORIENTED_EDGE('',*,*,#482,.T.);
#648=ORIENTED_EDGE('',*,*,#483,.F.);
#649=ORIENTED_EDGE('',*,*,#484,.F.);
#650=ORIENTED_EDGE('',*,*,#485,.F.);
#651=ORIENTED_EDGE('',*,*,#486,.F.);
#652=ORIENTED_EDGE('',*,*,#487,.F.);
#653=ORIENTED_EDGE('',*,*,#488,.F.);
#654=ORIENTED_EDGE('',*,*,#489,.F.);
#655=ORIENTED_EDGE('',*,*,#490,.F.);
#656=ORIENTED_EDGE('',*,*,#487,.T.);
#657=ORIENTED_EDGE('',*,*,#491,.T.);
#658=ORIENTED_EDGE('',*,*,#492,.F.);
#659=ORIENTED_EDGE('',*,*,#493,.F.);
#660=ORIENTED_EDGE('',*,*,#484,.T.);
#661=ORIENTED_EDGE('',*,*,#494,.F.);
#662=ORIENTED_EDGE('',*,*,#495,.F.);
#663=ORIENTED_EDGE('',*,*,#496,.F.);
#664=ORIENTED_EDGE('',*,*,#485,.T.);
#665=ORIENTED_EDGE('',*,*,#496,.T.);
#666=ORIENTED_EDGE('',*,*,#497,.F.);
#667=ORIENTED_EDGE('',*,*,#498,.F.);
#668=ORIENTED_EDGE('',*,*,#486,.T.);
#669=ORIENTED_EDGE('',*,*,#498,.T.);
#670=ORIENTED_EDGE('',*,*,#499,.F.);
#671=ORIENTED_EDGE('',*,*,#500,.F.);
#672=ORIENTED_EDGE('',*,*,#501,.F.);
#673=ORIENTED_EDGE('',*,*,#499,.T.);
#674=ORIENTED_EDGE('',*,*,#497,.T.);
#675=ORIENTED_EDGE('',*,*,#495,.T.);
#676=ORIENTED_EDGE('',*,*,#489,.T.);
#677=ORIENTED_EDGE('',*,*,#502,.F.);
#678=ORIENTED_EDGE('',*,*,#503,.F.);
#679=ORIENTED_EDGE('',*,*,#504,.F.);
#680=ORIENTED_EDGE('',*,*,#490,.T.);
#681=ORIENTED_EDGE('',*,*,#504,.T.);
#682=ORIENTED_EDGE('',*,*,#505,.F.);
#683=ORIENTED_EDGE('',*,*,#491,.F.);
#684=ORIENTED_EDGE('',*,*,#492,.T.);
#685=ORIENTED_EDGE('',*,*,#505,.T.);
#686=ORIENTED_EDGE('',*,*,#503,.T.);
#687=ORIENTED_EDGE('',*,*,#506,.F.);
#688=ORIENTED_EDGE('',*,*,#446,.T.);
#689=ORIENTED_EDGE('',*,*,#507,.T.);
#690=ORIENTED_EDGE('',*,*,#480,.F.);
#691=ORIENTED_EDGE('',*,*,#508,.F.);
#692=ORIENTED_EDGE('',*,*,#488,.T.);
#693=ORIENTED_EDGE('',*,*,#493,.T.);
#694=ORIENTED_EDGE('',*,*,#506,.T.);
#695=ORIENTED_EDGE('',*,*,#502,.T.);
#696=ORIENTED_EDGE('',*,*,#443,.T.);
#697=ORIENTED_EDGE('',*,*,#463,.T.);
#698=ORIENTED_EDGE('',*,*,#473,.F.);
#699=ORIENTED_EDGE('',*,*,#509,.F.);
#700=ORIENTED_EDGE('',*,*,#482,.F.);
#701=ORIENTED_EDGE('',*,*,#510,.F.);
#702=ORIENTED_EDGE('',*,*,#444,.T.);
#703=ORIENTED_EDGE('',*,*,#509,.T.);
#704=ORIENTED_EDGE('',*,*,#472,.F.);
#705=ORIENTED_EDGE('',*,*,#470,.F.);
#706=ORIENTED_EDGE('',*,*,#445,.F.);
#707=ORIENTED_EDGE('',*,*,#510,.T.);
#708=ORIENTED_EDGE('',*,*,#481,.F.);
#709=ORIENTED_EDGE('',*,*,#507,.F.);
#710=ORIENTED_EDGE('',*,*,#447,.T.);
#711=ORIENTED_EDGE('',*,*,#508,.T.);
#712=ORIENTED_EDGE('',*,*,#479,.F.);
#713=ORIENTED_EDGE('',*,*,#511,.F.);
#714=ORIENTED_EDGE('',*,*,#448,.F.);
#715=ORIENTED_EDGE('',*,*,#511,.T.);
#716=ORIENTED_EDGE('',*,*,#478,.F.);
#717=ORIENTED_EDGE('',*,*,#512,.F.);
#718=ORIENTED_EDGE('',*,*,#449,.F.);
#719=ORIENTED_EDGE('',*,*,#512,.T.);
#720=ORIENTED_EDGE('',*,*,#477,.F.);
#721=ORIENTED_EDGE('',*,*,#513,.F.);
#722=ORIENTED_EDGE('',*,*,#450,.F.);
#723=ORIENTED_EDGE('',*,*,#513,.T.);
#724=ORIENTED_EDGE('',*,*,#476,.F.);
#725=ORIENTED_EDGE('',*,*,#514,.F.);
#726=ORIENTED_EDGE('',*,*,#483,.T.);
#727=ORIENTED_EDGE('',*,*,#500,.T.);
#728=ORIENTED_EDGE('',*,*,#501,.T.);
#729=ORIENTED_EDGE('',*,*,#494,.T.);
#730=ORIENTED_EDGE('',*,*,#451,.F.);
#731=ORIENTED_EDGE('',*,*,#514,.T.);
#732=ORIENTED_EDGE('',*,*,#475,.F.);
#733=ORIENTED_EDGE('',*,*,#515,.F.);
#734=ORIENTED_EDGE('',*,*,#452,.F.);
#735=ORIENTED_EDGE('',*,*,#515,.T.);
#736=ORIENTED_EDGE('',*,*,#474,.F.);
#737=ORIENTED_EDGE('',*,*,#464,.F.);
#738=PLANE('',#838);
#739=PLANE('',#839);
#740=PLANE('',#840);
#741=PLANE('',#841);
#742=PLANE('',#842);
#743=PLANE('',#843);
#744=PLANE('',#844);
#745=PLANE('',#845);
#746=PLANE('',#846);
#747=PLANE('',#847);
#748=PLANE('',#848);
#749=PLANE('',#849);
#750=PLANE('',#850);
#751=PLANE('',#851);
#752=PLANE('',#852);
#753=PLANE('',#853);
#754=PLANE('',#854);
#755=PLANE('',#855);
#756=PLANE('',#856);
#757=PLANE('',#857);
#758=PLANE('',#858);
#759=PLANE('',#859);
#760=PLANE('',#860);
#761=PLANE('',#861);
#762=PLANE('',#862);
#763=PLANE('',#863);
#764=PLANE('',#864);
#765=PLANE('',#865);
#766=PLANE('',#866);
#767=PLANE('',#867);
#768=PLANE('',#868);
#769=PLANE('',#869);
#770=PLANE('',#870);
#771=PLANE('',#871);
#772=PLANE('',#872);
#773=PLANE('',#873);
#774=PLANE('',#874);
#775=PLANE('',#875);
#776=PLANE('',#876);
#777=PLANE('',#877);
#778=PLANE('',#878);
#779=PLANE('',#879);
#780=PLANE('',#880);
#781=ADVANCED_FACE('',(#19),#738,.F.);
#782=ADVANCED_FACE('',(#20),#739,.F.);
#783=ADVANCED_FACE('',(#21),#740,.T.);
#784=ADVANCED_FACE('',(#22),#741,.T.);
#785=ADVANCED_FACE('',(#23),#742,.F.);
#786=ADVANCED_FACE('',(#24),#743,.F.);
#787=ADVANCED_FACE('',(#25),#744,.T.);
#788=ADVANCED_FACE('',(#26,#15),#745,.T.);
#789=ADVANCED_FACE('',(#27),#746,.T.);
#790=ADVANCED_FACE('',(#28,#16),#747,.T.);
#791=ADVANCED_FACE('',(#29),#748,.F.);
#792=ADVANCED_FACE('',(#30),#749,.T.);
#793=ADVANCED_FACE('',(#31),#750,.T.);
#794=ADVANCED_FACE('',(#32),#751,.T.);
#795=ADVANCED_FACE('',(#33),#752,.T.);
#796=ADVANCED_FACE('',(#34),#753,.T.);
#797=ADVANCED_FACE('',(#35),#754,.T.);
#798=ADVANCED_FACE('',(#36),#755,.T.);
#799=ADVANCED_FACE('',(#37),#756,.T.);
#800=ADVANCED_FACE('',(#38),#757,.T.);
#801=ADVANCED_FACE('',(#39),#758,.T.);
#802=ADVANCED_FACE('',(#40),#759,.T.);
#803=ADVANCED_FACE('',(#41),#760,.T.);
#804=ADVANCED_FACE('',(#42),#761,.F.);
#805=ADVANCED_FACE('',(#43),#762,.F.);
#806=ADVANCED_FACE('',(#44),#763,.T.);
#807=ADVANCED_FACE('',(#45),#764,.T.);
#808=ADVANCED_FACE('',(#46),#765,.T.);
#809=ADVANCED_FACE('',(#47),#766,.T.);
#810=ADVANCED_FACE('',(#48),#767,.T.);
#811=ADVANCED_FACE('',(#49),#768,.T.);
#812=ADVANCED_FACE('',(#50),#769,.T.);
#813=ADVANCED_FACE('',(#51),#770,.T.);
#814=ADVANCED_FACE('',(#52,#17),#771,.T.);
#815=ADVANCED_FACE('',(#53),#772,.T.);
#816=ADVANCED_FACE('',(#54),#773,.T.);
#817=ADVANCED_FACE('',(#55),#774,.T.);
#818=ADVANCED_FACE('',(#56),#775,.T.);
#819=ADVANCED_FACE('',(#57),#776,.T.);
#820=ADVANCED_FACE('',(#58),#777,.T.);
#821=ADVANCED_FACE('',(#59,#18),#778,.T.);
#822=ADVANCED_FACE('',(#60),#779,.T.);
#823=ADVANCED_FACE('',(#61),#780,.T.);
#824=CLOSED_SHELL('',(#781,#782,#783,#784,#785,#786,#787,#788,#789,#790,
#791,#792,#793,#794,#795,#796,#797,#798,#799,#800,#801,#802,#803,#804,#805,
#806,#807,#808,#809,#810,#811,#812,#813,#814,#815,#816,#817,#818,#819,#820,
#821,#822,#823));
#825=DERIVED_UNIT_ELEMENT(#827,1.);
#826=DERIVED_UNIT_ELEMENT(#1314,-3.);
#827=(
MASS_UNIT()
NAMED_UNIT(*)
SI_UNIT(.KILO.,.GRAM.)
);
#828=DERIVED_UNIT((#825,#826));
#829=MEASURE_REPRESENTATION_ITEM('density measure',
POSITIVE_RATIO_MEASURE(7850.),#828);
#830=PROPERTY_DEFINITION_REPRESENTATION(#835,#832);
#831=PROPERTY_DEFINITION_REPRESENTATION(#836,#833);
#832=REPRESENTATION('material name',(#834),#1311);
#833=REPRESENTATION('density',(#829),#1311);
#834=DESCRIPTIVE_REPRESENTATION_ITEM('Steel','Steel');
#835=PROPERTY_DEFINITION('material property','material name',#1321);
#836=PROPERTY_DEFINITION('material property','density of part',#1321);
#837=AXIS2_PLACEMENT_3D('',#1080,#881,#882);
#838=AXIS2_PLACEMENT_3D('',#1081,#883,#884);
#839=AXIS2_PLACEMENT_3D('',#1090,#889,#890);
#840=AXIS2_PLACEMENT_3D('',#1099,#895,#896);
#841=AXIS2_PLACEMENT_3D('',#1105,#900,#901);
#842=AXIS2_PLACEMENT_3D('',#1111,#905,#906);
#843=AXIS2_PLACEMENT_3D('',#1120,#911,#912);
#844=AXIS2_PLACEMENT_3D('',#1129,#917,#918);
#845=AXIS2_PLACEMENT_3D('',#1135,#922,#923);
#846=AXIS2_PLACEMENT_3D('',#1142,#928,#929);
#847=AXIS2_PLACEMENT_3D('',#1148,#933,#934);
#848=AXIS2_PLACEMENT_3D('',#1157,#940,#941);
#849=AXIS2_PLACEMENT_3D('',#1180,#953,#954);
#850=AXIS2_PLACEMENT_3D('',#1184,#957,#958);
#851=AXIS2_PLACEMENT_3D('',#1186,#960,#961);
#852=AXIS2_PLACEMENT_3D('',#1187,#962,#963);
#853=AXIS2_PLACEMENT_3D('',#1189,#965,#966);
#854=AXIS2_PLACEMENT_3D('',#1191,#968,#969);
#855=AXIS2_PLACEMENT_3D('',#1192,#970,#971);
#856=AXIS2_PLACEMENT_3D('',#1196,#974,#975);
#857=AXIS2_PLACEMENT_3D('',#1210,#984,#985);
#858=AXIS2_PLACEMENT_3D('',#1212,#987,#988);
#859=AXIS2_PLACEMENT_3D('',#1218,#992,#993);
#860=AXIS2_PLACEMENT_3D('',#1222,#996,#997);
#861=AXIS2_PLACEMENT_3D('',#1240,#1007,#1008);
#862=AXIS2_PLACEMENT_3D('',#1249,#1013,#1014);
#863=AXIS2_PLACEMENT_3D('',#1258,#1019,#1020);
#864=AXIS2_PLACEMENT_3D('',#1264,#1024,#1025);
#865=AXIS2_PLACEMENT_3D('',#1270,#1029,#1030);
#866=AXIS2_PLACEMENT_3D('',#1274,#1033,#1034);
#867=AXIS2_PLACEMENT_3D('',#1278,#1037,#1038);
#868=AXIS2_PLACEMENT_3D('',#1280,#1040,#1041);
#869=AXIS2_PLACEMENT_3D('',#1286,#1045,#1046);
#870=AXIS2_PLACEMENT_3D('',#1288,#1048,#1049);
#871=AXIS2_PLACEMENT_3D('',#1290,#1051,#1052);
#872=AXIS2_PLACEMENT_3D('',#1293,#1055,#1056);
#873=AXIS2_PLACEMENT_3D('',#1295,#1058,#1059);
#874=AXIS2_PLACEMENT_3D('',#1297,#1061,#1062);
#875=AXIS2_PLACEMENT_3D('',#1298,#1063,#1064);
#876=AXIS2_PLACEMENT_3D('',#1300,#1066,#1067);
#877=AXIS2_PLACEMENT_3D('',#1302,#1069,#1070);
#878=AXIS2_PLACEMENT_3D('',#1304,#1072,#1073);
#879=AXIS2_PLACEMENT_3D('',#1306,#1075,#1076);
#880=AXIS2_PLACEMENT_3D('',#1308,#1078,#1079);
#881=DIRECTION('axis',(0.,0.,1.));
#882=DIRECTION('refdir',(1.,0.,0.));
#883=DIRECTION('center_axis',(0.,1.,0.));
#884=DIRECTION('ref_axis',(0.,0.,1.));
#885=DIRECTION('',(0.,0.,-1.));
#886=DIRECTION('',(1.,0.,0.));
#887=DIRECTION('',(0.,0.,1.));
#888=DIRECTION('',(-1.,0.,0.));
#889=DIRECTION('center_axis',(0.,1.,0.));
#890=DIRECTION('ref_axis',(0.,0.,1.));
#891=DIRECTION('',(0.,0.,-1.));
#892=DIRECTION('',(1.,0.,0.));
#893=DIRECTION('',(0.,0.,1.));
#894=DIRECTION('',(-1.,0.,0.));
#895=DIRECTION('center_axis',(1.,0.,0.));
#896=DIRECTION('ref_axis',(0.,0.,-1.));
#897=DIRECTION('',(0.,1.,0.));
#898=DIRECTION('',(0.,0.,-1.));
#899=DIRECTION('',(0.,1.,0.));
#900=DIRECTION('center_axis',(0.,0.,-1.));
#901=DIRECTION('ref_axis',(-1.,0.,0.));
#902=DIRECTION('',(0.,1.,0.));
#903=DIRECTION('',(-1.,0.,0.));
#904=DIRECTION('',(0.,1.,0.));
#905=DIRECTION('center_axis',(0.,1.,0.));
#906=DIRECTION('ref_axis',(0.,0.,1.));
#907=DIRECTION('',(1.,0.,0.));
#908=DIRECTION('',(0.,0.,1.));
#909=DIRECTION('',(-1.,0.,0.));
#910=DIRECTION('',(0.,0.,-1.));
#911=DIRECTION('center_axis',(0.,1.,0.));
#912=DIRECTION('ref_axis',(0.,0.,1.));
#913=DIRECTION('',(1.,0.,0.));
#914=DIRECTION('',(0.,0.,1.));
#915=DIRECTION('',(-1.,0.,0.));
#916=DIRECTION('',(0.,0.,-1.));
#917=DIRECTION('center_axis',(-1.,0.,0.));
#918=DIRECTION('ref_axis',(0.,0.,1.));
#919=DIRECTION('',(0.,-1.,0.));
#920=DIRECTION('',(0.,0.,1.));
#921=DIRECTION('',(0.,1.,0.));
#922=DIRECTION('center_axis',(0.,0.,-1.));
#923=DIRECTION('ref_axis',(-1.,0.,0.));
#924=DIRECTION('',(-1.,0.,0.));
#925=DIRECTION('',(0.,1.,0.));
#926=DIRECTION('',(-1.,0.,0.));
#927=DIRECTION('',(0.,-1.,0.));
#928=DIRECTION('center_axis',(-1.,0.,0.));
#929=DIRECTION('ref_axis',(0.,0.,1.));
#930=DIRECTION('',(0.,-1.,0.));
#931=DIRECTION('',(0.,0.,1.));
#932=DIRECTION('',(0.,1.,0.));
#933=DIRECTION('center_axis',(0.,0.,-1.));
#934=DIRECTION('ref_axis',(-1.,0.,0.));
#935=DIRECTION('',(-1.,0.,0.));
#936=DIRECTION('',(0.,1.,0.));
#937=DIRECTION('',(0.,1.,0.));
#938=DIRECTION('',(-1.,0.,0.));
#939=DIRECTION('',(0.,-1.,0.));
#940=DIRECTION('center_axis',(0.,1.,0.));
#941=DIRECTION('ref_axis',(1.,0.,0.));
#942=DIRECTION('',(-1.,0.,0.));
#943=DIRECTION('',(0.,0.,-1.));
#944=DIRECTION('',(1.,0.,0.));
#945=DIRECTION('',(-0.927183854566787,0.,-0.374606593415912));
#946=DIRECTION('',(-0.374606593415912,0.,0.927183854566787));
#947=DIRECTION('',(-0.927183854566787,0.,-0.374606593415912));
#948=DIRECTION('',(0.374606593415912,0.,-0.927183854566787));
#949=DIRECTION('',(-0.927183854566787,0.,-0.374606593415912));
#950=DIRECTION('',(0.374606593415913,0.,-0.927183854566787));
#951=DIRECTION('',(0.927183854566787,0.,0.374606593415912));
#952=DIRECTION('',(-0.374606593415912,0.,0.927183854566787));
#953=DIRECTION('center_axis',(-1.,0.,0.));
#954=DIRECTION('ref_axis',(0.,0.,1.));
#955=DIRECTION('',(0.,0.,1.));
#956=DIRECTION('',(0.,1.,0.));
#957=DIRECTION('center_axis',(0.,0.,-1.));
#958=DIRECTION('ref_axis',(-1.,0.,0.));
#959=DIRECTION('',(-1.,0.,0.));
#960=DIRECTION('center_axis',(0.,1.,0.));
#961=DIRECTION('ref_axis',(0.,0.,1.));
#962=DIRECTION('center_axis',(-1.,0.,0.));
#963=DIRECTION('ref_axis',(0.,0.,1.));
#964=DIRECTION('',(0.,0.,1.));
#965=DIRECTION('center_axis',(1.,0.,0.));
#966=DIRECTION('ref_axis',(0.,0.,-1.));
#967=DIRECTION('',(0.,0.,-1.));
#968=DIRECTION('center_axis',(0.,1.,0.));
#969=DIRECTION('ref_axis',(0.,0.,1.));
#970=DIRECTION('center_axis',(1.,0.,0.));
#971=DIRECTION('ref_axis',(0.,0.,-1.));
#972=DIRECTION('',(0.,0.,-1.));
#973=DIRECTION('',(0.,1.,0.));
#974=DIRECTION('center_axis',(0.,0.,-1.));
#975=DIRECTION('ref_axis',(-1.,0.,0.));
#976=DIRECTION('',(-1.,0.,0.));
#977=DIRECTION('',(0.,1.,0.));
#978=DIRECTION('',(-1.,0.,0.));
#979=DIRECTION('',(0.,1.,0.));
#980=DIRECTION('',(0.,1.,0.));
#981=DIRECTION('',(-1.,0.,0.));
#982=DIRECTION('',(0.,1.,0.));
#983=DIRECTION('',(-1.,0.,0.));
#984=DIRECTION('center_axis',(1.,0.,0.));
#985=DIRECTION('ref_axis',(0.,0.,-1.));
#986=DIRECTION('',(0.,0.,-1.));
#987=DIRECTION('center_axis',(-1.,0.,0.));
#988=DIRECTION('ref_axis',(0.,0.,1.));
#989=DIRECTION('',(0.,0.,-1.));
#990=DIRECTION('',(0.,1.,0.));
#991=DIRECTION('',(0.,0.,1.));
#992=DIRECTION('center_axis',(0.,1.,0.));
#993=DIRECTION('ref_axis',(0.,0.,1.));
#994=DIRECTION('',(1.,0.,0.));
#995=DIRECTION('',(0.,0.,-1.));
#996=DIRECTION('center_axis',(0.,1.,0.));
#997=DIRECTION('ref_axis',(0.,0.,1.));
#998=DIRECTION('',(0.374606593415912,0.,-0.927183854566787));
#999=DIRECTION('',(-0.927183854566787,0.,-0.374606593415912));
#1000=DIRECTION('',(-0.374606593415913,0.,0.927183854566787));
#1001=DIRECTION('',(0.927183854566787,0.,0.374606593415912));
#1002=DIRECTION('',(-0.374606593415912,0.,0.927183854566787));
#1003=DIRECTION('',(-0.927183854566787,0.,-0.374606593415912));
#1004=DIRECTION('',(-0.374606593415912,0.,0.927183854566787));
#1005=DIRECTION('',(0.927183854566787,0.,0.374606593415912));
#1006=DIRECTION('',(1.,0.,0.));
#1007=DIRECTION('center_axis',(0.,1.,0.));
#1008=DIRECTION('ref_axis',(0.,0.,1.));
#1009=DIRECTION('',(0.374606593415913,0.,-0.927183854566787));
#1010=DIRECTION('',(0.927183854566788,0.,0.374606593415912));
#1011=DIRECTION('',(-0.374606593415911,0.,0.927183854566788));
#1012=DIRECTION('',(-0.927183854566788,0.,-0.374606593415912));
#1013=DIRECTION('center_axis',(0.,1.,0.));
#1014=DIRECTION('ref_axis',(0.,0.,1.));
#1015=DIRECTION('',(-0.927183854566787,0.,-0.374606593415912));
#1016=DIRECTION('',(0.374606593415912,0.,-0.927183854566787));
#1017=DIRECTION('',(0.927183854566787,0.,0.374606593415912));
#1018=DIRECTION('',(-0.374606593415912,0.,0.927183854566788));
#1019=DIRECTION('center_axis',(0.374606593415912,0.,-0.927183854566787));
#1020=DIRECTION('ref_axis',(-0.927183854566787,0.,-0.374606593415912));
#1021=DIRECTION('',(0.,1.,0.));
#1022=DIRECTION('',(-0.927183854566787,0.,-0.374606593415912));
#1023=DIRECTION('',(0.,1.,0.));
#1024=DIRECTION('center_axis',(-0.374606593415912,0.,0.927183854566788));
#1025=DIRECTION('ref_axis',(0.927183854566788,0.,0.374606593415912));
#1026=DIRECTION('',(0.,-1.,0.));
#1027=DIRECTION('',(0.927183854566788,0.,0.374606593415912));
#1028=DIRECTION('',(0.,1.,0.));
#1029=DIRECTION('center_axis',(-0.927183854566788,0.,-0.374606593415911));
#1030=DIRECTION('ref_axis',(-0.374606593415911,0.,0.927183854566788));
#1031=DIRECTION('',(-0.374606593415911,0.,0.927183854566788));
#1032=DIRECTION('',(0.,1.,0.));
#1033=DIRECTION('center_axis',(0.374606593415912,0.,-0.927183854566788));
#1034=DIRECTION('ref_axis',(-0.927183854566788,0.,-0.374606593415912));
#1035=DIRECTION('',(-0.927183854566788,0.,-0.374606593415912));
#1036=DIRECTION('',(0.,1.,0.));
#1037=DIRECTION('center_axis',(0.,1.,0.));
#1038=DIRECTION('ref_axis',(0.,0.,1.));
#1039=DIRECTION('',(-0.374606593415913,0.,0.927183854566787));
#1040=DIRECTION('center_axis',(-0.374606593415912,0.,0.927183854566787));
#1041=DIRECTION('ref_axis',(0.927183854566787,0.,0.374606593415912));
#1042=DIRECTION('',(0.,-1.,0.));
#1043=DIRECTION('',(0.927183854566787,0.,0.374606593415912));
#1044=DIRECTION('',(0.,1.,0.));
#1045=DIRECTION('center_axis',(-0.927183854566788,0.,-0.374606593415912));
#1046=DIRECTION('ref_axis',(-0.374606593415912,0.,0.927183854566788));
#1047=DIRECTION('',(-0.374606593415912,0.,0.927183854566788));
#1048=DIRECTION('center_axis',(0.,1.,0.));
#1049=DIRECTION('ref_axis',(0.,0.,1.));
#1050=DIRECTION('',(-0.374606593415912,0.,0.927183854566787));
#1051=DIRECTION('center_axis',(-0.927183854566787,0.,-0.374606593415912));
#1052=DIRECTION('ref_axis',(-0.374606593415912,0.,0.927183854566787));
#1053=DIRECTION('',(0.,1.,0.));
#1054=DIRECTION('',(0.,1.,0.));
#1055=DIRECTION('center_axis',(1.,0.,0.));
#1056=DIRECTION('ref_axis',(0.,0.,-1.));
#1057=DIRECTION('',(0.,1.,0.));
#1058=DIRECTION('center_axis',(0.,0.,1.));
#1059=DIRECTION('ref_axis',(1.,0.,0.));
#1060=DIRECTION('',(0.,1.,0.));
#1061=DIRECTION('center_axis',(-0.374606593415912,0.,0.927183854566787));
#1062=DIRECTION('ref_axis',(0.927183854566787,0.,0.374606593415912));
#1063=DIRECTION('center_axis',(0.374606593415912,0.,-0.927183854566787));
#1064=DIRECTION('ref_axis',(-0.927183854566787,0.,-0.374606593415912));
#1065=DIRECTION('',(0.,1.,0.));
#1066=DIRECTION('center_axis',(-0.927183854566787,0.,-0.374606593415912));
#1067=DIRECTION('ref_axis',(-0.374606593415912,0.,0.927183854566787));
#1068=DIRECTION('',(0.,1.,0.));
#1069=DIRECTION('center_axis',(-0.374606593415912,0.,0.927183854566787));
#1070=DIRECTION('ref_axis',(0.927183854566787,0.,0.374606593415912));
#1071=DIRECTION('',(0.,1.,0.));
#1072=DIRECTION('center_axis',(-0.927183854566787,0.,-0.374606593415913));
#1073=DIRECTION('ref_axis',(-0.374606593415913,0.,0.927183854566787));
#1074=DIRECTION('',(0.,1.,0.));
#1075=DIRECTION('center_axis',(0.374606593415912,0.,-0.927183854566787));
#1076=DIRECTION('ref_axis',(-0.927183854566787,0.,-0.374606593415912));
#1077=DIRECTION('',(0.,1.,0.));
#1078=DIRECTION('center_axis',(0.927183854566787,0.,0.374606593415912));
#1079=DIRECTION('ref_axis',(0.374606593415912,0.,-0.927183854566787));
#1080=CARTESIAN_POINT('',(0.,0.,0.));
#1081=CARTESIAN_POINT('Origin',(27.5,21.5,-11.));
#1082=CARTESIAN_POINT('',(28.5,21.5,-10.));
#1083=CARTESIAN_POINT('',(28.5,21.5,-12.));
#1084=CARTESIAN_POINT('',(28.5,21.5,-10.5));
#1085=CARTESIAN_POINT('',(26.5,21.5,-10.));
#1086=CARTESIAN_POINT('',(24.5,21.5,-10.));
#1087=CARTESIAN_POINT('',(26.5,21.5,-12.));
#1088=CARTESIAN_POINT('',(26.5,21.5,-11.5));
#1089=CARTESIAN_POINT('',(28.,21.5,-12.));
#1090=CARTESIAN_POINT('Origin',(50.5,21.5,-11.));
#1091=CARTESIAN_POINT('',(51.5,21.5,-10.));
#1092=CARTESIAN_POINT('',(51.5,21.5,-12.));
#1093=CARTESIAN_POINT('',(51.5,21.5,-10.5));
#1094=CARTESIAN_POINT('',(49.5,21.5,-10.));
#1095=CARTESIAN_POINT('',(47.5,21.5,-10.));
#1096=CARTESIAN_POINT('',(49.5,21.5,-12.));
#1097=CARTESIAN_POINT('',(49.5,21.5,-11.5));
#1098=CARTESIAN_POINT('',(51.,21.5,-12.));
#1099=CARTESIAN_POINT('Origin',(28.5,0.,-10.));
#1100=CARTESIAN_POINT('',(28.5,23.5,-12.));
#1101=CARTESIAN_POINT('',(28.5,0.,-12.));
#1102=CARTESIAN_POINT('',(28.5,23.5,-10.));
#1103=CARTESIAN_POINT('',(28.5,23.5,-7.));
#1104=CARTESIAN_POINT('',(28.5,0.,-10.));
#1105=CARTESIAN_POINT('Origin',(51.5,0.,-12.));
#1106=CARTESIAN_POINT('',(49.5,23.5,-12.));
#1107=CARTESIAN_POINT('',(49.5,0.,-12.));
#1108=CARTESIAN_POINT('',(51.5,23.5,-12.));
#1109=CARTESIAN_POINT('',(51.5,23.5,-12.));
#1110=CARTESIAN_POINT('',(51.5,0.,-12.));
#1111=CARTESIAN_POINT('Origin',(27.5,19.5,-8.5));
#1112=CARTESIAN_POINT('',(24.5,19.5,-7.));
#1113=CARTESIAN_POINT('',(30.5,19.5,-7.));
#1114=CARTESIAN_POINT('',(27.5,19.5,-7.));
#1115=CARTESIAN_POINT('',(24.5,19.5,-10.));
#1116=CARTESIAN_POINT('',(24.5,19.5,-9.25));
#1117=CARTESIAN_POINT('',(30.5,19.5,-10.));
#1118=CARTESIAN_POINT('',(30.5,19.5,-10.));
#1119=CARTESIAN_POINT('',(30.5,19.5,-7.75));
#1120=CARTESIAN_POINT('Origin',(50.5,19.5,-8.5));
#1121=CARTESIAN_POINT('',(47.5,19.5,-7.));
#1122=CARTESIAN_POINT('',(53.5,19.5,-7.));
#1123=CARTESIAN_POINT('',(50.5,19.5,-7.));
#1124=CARTESIAN_POINT('',(47.5,19.5,-10.));
#1125=CARTESIAN_POINT('',(47.5,19.5,-9.25));
#1126=CARTESIAN_POINT('',(53.5,19.5,-10.));
#1127=CARTESIAN_POINT('',(53.5,19.5,-10.));
#1128=CARTESIAN_POINT('',(53.5,19.5,-7.75));
#1129=CARTESIAN_POINT('Origin',(24.5,0.,-10.));
#1130=CARTESIAN_POINT('',(24.5,25.5,-7.));
#1131=CARTESIAN_POINT('',(24.5,0.,-7.));
#1132=CARTESIAN_POINT('',(24.5,25.5,-10.));
#1133=CARTESIAN_POINT('',(24.5,25.5,-7.));
#1134=CARTESIAN_POINT('',(24.5,0.,-10.));
#1135=CARTESIAN_POINT('Origin',(30.5,0.,-10.));
#1136=CARTESIAN_POINT('',(30.5,25.5,-10.));
#1137=CARTESIAN_POINT('',(30.5,25.5,-10.));
#1138=CARTESIAN_POINT('',(30.5,0.,-10.));
#1139=CARTESIAN_POINT('',(26.5,23.5,-10.));
#1140=CARTESIAN_POINT('',(29.,23.5,-10.));
#1141=CARTESIAN_POINT('',(26.5,0.,-10.));
#1142=CARTESIAN_POINT('Origin',(47.5,0.,-10.));
#1143=CARTESIAN_POINT('',(47.5,25.5,-7.));
#1144=CARTESIAN_POINT('',(47.5,0.,-7.));
#1145=CARTESIAN_POINT('',(47.5,25.5,-10.));
#1146=CARTESIAN_POINT('',(47.5,25.5,-7.));
#1147=CARTESIAN_POINT('',(47.5,0.,-10.));
#1148=CARTESIAN_POINT('Origin',(53.5,0.,-10.));
#1149=CARTESIAN_POINT('',(53.5,25.5,-10.));
#1150=CARTESIAN_POINT('',(53.5,25.5,-10.));
#1151=CARTESIAN_POINT('',(53.5,0.,-10.));
#1152=CARTESIAN_POINT('',(51.5,23.5,-10.));
#1153=CARTESIAN_POINT('',(51.5,0.,-10.));
#1154=CARTESIAN_POINT('',(49.5,23.5,-10.));
#1155=CARTESIAN_POINT('',(52.,23.5,-10.));
#1156=CARTESIAN_POINT('',(49.5,0.,-10.));
#1157=CARTESIAN_POINT('Origin',(24.2184484362996,0.,-37.5157860719941));
#1158=CARTESIAN_POINT('',(54.,0.,-7.));
#1159=CARTESIAN_POINT('',(10.3779267795892,0.,-7.));
#1160=CARTESIAN_POINT('',(54.,0.,-7.));
#1161=CARTESIAN_POINT('',(54.,0.,0.));
#1162=CARTESIAN_POINT('',(54.,0.,0.));
#1163=CARTESIAN_POINT('',(0.,0.,0.));
#1164=CARTESIAN_POINT('',(0.,0.,0.));
#1165=CARTESIAN_POINT('',(-5.56310312740073,0.,-2.24763956049547));
#1166=CARTESIAN_POINT('',(0.,0.,0.));
#1167=CARTESIAN_POINT('',(-3.31546356690525,0.,-7.8107426878962));
#1168=CARTESIAN_POINT('',(-3.31546356690525,0.,-7.8107426878962));
#1169=CARTESIAN_POINT('',(2.24763956049547,0.,-5.56310312740073));
#1170=CARTESIAN_POINT('',(2.24763956049547,0.,-5.56310312740073));
#1171=CARTESIAN_POINT('',(27.1589780226536,0.,-67.2208294560921));
#1172=CARTESIAN_POINT('',(0.,0.,0.));
#1173=CARTESIAN_POINT('',(21.5958748952529,0.,-69.4684690165876));
#1174=CARTESIAN_POINT('',(27.1589780226536,0.,-67.2208294560921));
#1175=CARTESIAN_POINT('',(23.8435144557484,0.,-75.0315721439883));
#1176=CARTESIAN_POINT('',(21.5958748952529,0.,-69.4684690165876));
#1177=CARTESIAN_POINT('',(35.8969045651166,0.,-70.1616864295814));
#1178=CARTESIAN_POINT('',(29.4066175831491,0.,-72.7839325834928));
#1179=CARTESIAN_POINT('',(35.8969045651166,0.,-70.1616864295814));
#1180=CARTESIAN_POINT('Origin',(26.5,0.,-12.));
#1181=CARTESIAN_POINT('',(26.5,23.5,-12.));
#1182=CARTESIAN_POINT('',(26.5,23.5,-7.));
#1183=CARTESIAN_POINT('',(26.5,0.,-12.));
#1184=CARTESIAN_POINT('Origin',(28.5,0.,-12.));
#1185=CARTESIAN_POINT('',(28.5,23.5,-12.));
#1186=CARTESIAN_POINT('Origin',(27.5,23.5,-11.));
#1187=CARTESIAN_POINT('Origin',(49.5,0.,-12.));
#1188=CARTESIAN_POINT('',(49.5,23.5,-7.));
#1189=CARTESIAN_POINT('Origin',(51.5,0.,-10.));
#1190=CARTESIAN_POINT('',(51.5,23.5,-7.));
#1191=CARTESIAN_POINT('Origin',(50.5,23.5,-11.));
#1192=CARTESIAN_POINT('Origin',(30.5,0.,-7.));
#1193=CARTESIAN_POINT('',(30.5,25.5,-7.));
#1194=CARTESIAN_POINT('',(30.5,25.5,-7.));
#1195=CARTESIAN_POINT('',(30.5,0.,-7.));
#1196=CARTESIAN_POINT('Origin',(54.,0.,-7.));
#1197=CARTESIAN_POINT('',(54.,25.5,-7.));
#1198=CARTESIAN_POINT('',(53.5,25.5,-7.));
#1199=CARTESIAN_POINT('',(53.5,0.,-7.));
#1200=CARTESIAN_POINT('',(54.,25.5,-7.));
#1201=CARTESIAN_POINT('',(54.,25.5,-7.));
#1202=CARTESIAN_POINT('',(54.,0.,-7.));
#1203=CARTESIAN_POINT('',(10.3779267795892,6.,-7.));
#1204=CARTESIAN_POINT('',(10.3779267795892,0.,-7.));
#1205=CARTESIAN_POINT('',(24.,6.,-7.));
#1206=CARTESIAN_POINT('',(54.,6.,-7.));
#1207=CARTESIAN_POINT('',(24.,25.5,-7.));
#1208=CARTESIAN_POINT('',(24.,0.,-7.));
#1209=CARTESIAN_POINT('',(54.,25.5,-7.));
#1210=CARTESIAN_POINT('Origin',(53.5,0.,-7.));
#1211=CARTESIAN_POINT('',(53.5,25.5,-7.));
#1212=CARTESIAN_POINT('Origin',(24.,0.,-7.));
#1213=CARTESIAN_POINT('',(24.,6.,0.));
#1214=CARTESIAN_POINT('',(24.,6.,-22.2578930359971));
#1215=CARTESIAN_POINT('',(24.,25.5,0.));
#1216=CARTESIAN_POINT('',(24.,0.,0.));
#1217=CARTESIAN_POINT('',(24.,25.5,0.));
#1218=CARTESIAN_POINT('Origin',(39.,25.5,-3.5));
#1219=CARTESIAN_POINT('',(54.,25.5,0.));
#1220=CARTESIAN_POINT('',(27.5,25.5,0.));
#1221=CARTESIAN_POINT('',(54.,25.5,0.));
#1222=CARTESIAN_POINT('Origin',(24.2184484362996,6.,-37.5157860719941));
#1223=CARTESIAN_POINT('',(35.8969045651166,6.,-70.1616864295814));
#1224=CARTESIAN_POINT('',(35.8969045651166,6.,-70.1616864295814));
#1225=CARTESIAN_POINT('',(23.8435144557484,6.,-75.0315721439883));
#1226=CARTESIAN_POINT('',(29.4066175831491,6.,-72.7839325834928));
#1227=CARTESIAN_POINT('',(21.5958748952529,6.,-69.4684690165876));
#1228=CARTESIAN_POINT('',(21.5958748952529,6.,-69.4684690165876));
#1229=CARTESIAN_POINT('',(27.1589780226536,6.,-67.2208294560921));
#1230=CARTESIAN_POINT('',(27.1589780226536,6.,-67.2208294560921));
#1231=CARTESIAN_POINT('',(2.24763956049547,6.,-5.56310312740073));
#1232=CARTESIAN_POINT('',(0.,6.,0.));
#1233=CARTESIAN_POINT('',(-3.31546356690525,6.,-7.8107426878962));
#1234=CARTESIAN_POINT('',(2.24763956049547,6.,-5.56310312740073));
#1235=CARTESIAN_POINT('',(-5.56310312740073,6.,-2.24763956049547));
#1236=CARTESIAN_POINT('',(-3.31546356690525,6.,-7.8107426878962));
#1237=CARTESIAN_POINT('',(0.,6.,0.));
#1238=CARTESIAN_POINT('',(0.,6.,0.));
#1239=CARTESIAN_POINT('',(0.,6.,0.));
#1240=CARTESIAN_POINT('Origin',(21.3289188936504,2.,-72.8119304704118));
#1241=CARTESIAN_POINT('',(22.3450880820847,2.,-71.3228367257211));
#1242=CARTESIAN_POINT('',(23.0943012689165,2.,-73.1772044348547));
#1243=CARTESIAN_POINT('',(21.5958748952529,2.,-69.4684690165876));
#1244=CARTESIAN_POINT('',(19.5635365183844,2.,-72.4466565059689));
#1245=CARTESIAN_POINT('',(20.2589244093094,2.,-72.1657015609069));
#1246=CARTESIAN_POINT('',(20.3127497052162,2.,-74.3010242151024));
#1247=CARTESIAN_POINT('',(20.1254464085082,2.,-73.8374322878191));
#1248=CARTESIAN_POINT('',(22.3989133779914,2.,-73.4581593799167));
#1249=CARTESIAN_POINT('Origin',(-5.83005912900317,2.,-5.59110101431971));
#1250=CARTESIAN_POINT('',(-4.06467675373707,2.,-5.95637497876263));
#1251=CARTESIAN_POINT('',(-6.84622831743744,2.,-7.08019475901036));
#1252=CARTESIAN_POINT('',(-4.76006464466217,2.,-6.23732992382456));
#1253=CARTESIAN_POINT('',(-4.8138899405689,2.,-4.10200726962905));
#1254=CARTESIAN_POINT('',(-3.31546356690525,2.,-7.8107426878962));
#1255=CARTESIAN_POINT('',(-7.59544150426926,2.,-5.22582704987679));
#1256=CARTESIAN_POINT('',(-6.90005361334417,2.,-4.94487210481485));
#1257=CARTESIAN_POINT('',(-7.03353161414539,2.,-6.61660283172697));
#1258=CARTESIAN_POINT('Origin',(-4.06467675373707,0.,-5.95637497876263));
#1259=CARTESIAN_POINT('',(-6.84622831743744,4.,-7.08019475901036));
#1260=CARTESIAN_POINT('',(-6.84622831743744,0.,-7.08019475901036));
#1261=CARTESIAN_POINT('',(-4.06467675373707,4.,-5.95637497876263));
#1262=CARTESIAN_POINT('',(1.49842637366365,4.,-3.70873541826715));
#1263=CARTESIAN_POINT('',(-4.06467675373708,0.,-5.95637497876263));
#1264=CARTESIAN_POINT('Origin',(19.5635365183844,0.,-72.4466565059689));
#1265=CARTESIAN_POINT('',(22.3450880820847,4.,-71.3228367257211));
#1266=CARTESIAN_POINT('',(22.3450880820847,0.,-71.3228367257211));
#1267=CARTESIAN_POINT('',(19.5635365183844,4.,-72.4466565059689));
#1268=CARTESIAN_POINT('',(27.9081912094854,4.,-69.0751971652257));
#1269=CARTESIAN_POINT('',(19.5635365183844,0.,-72.4466565059689));
#1270=CARTESIAN_POINT('Origin',(20.3127497052162,0.,-74.3010242151024));
#1271=CARTESIAN_POINT('',(20.3127497052162,4.,-74.3010242151024));
#1272=CARTESIAN_POINT('',(20.3127497052162,4.,-74.3010242151024));
#1273=CARTESIAN_POINT('',(20.3127497052162,0.,-74.3010242151024));
#1274=CARTESIAN_POINT('Origin',(23.0943012689165,0.,-73.1772044348547));
#1275=CARTESIAN_POINT('',(23.0943012689165,4.,-73.1772044348547));
#1276=CARTESIAN_POINT('',(28.6574043963173,4.,-70.9295648743592));
#1277=CARTESIAN_POINT('',(23.0943012689165,0.,-73.1772044348547));
#1278=CARTESIAN_POINT('Origin',(21.3289188936504,4.,-72.8119304704118));
#1279=CARTESIAN_POINT('',(23.2816045656245,4.,-73.6407963621381));
#1280=CARTESIAN_POINT('Origin',(-7.59544150426926,0.,-5.22582704987679));
#1281=CARTESIAN_POINT('',(-4.8138899405689,4.,-4.10200726962905));
#1282=CARTESIAN_POINT('',(-4.8138899405689,0.,-4.10200726962905));
#1283=CARTESIAN_POINT('',(-7.59544150426926,4.,-5.22582704987679));
#1284=CARTESIAN_POINT('',(0.749213186831824,4.,-1.85436770913358));
#1285=CARTESIAN_POINT('',(-7.59544150426926,0.,-5.22582704987679));
#1286=CARTESIAN_POINT('Origin',(-6.84622831743744,0.,-7.08019475901036));
#1287=CARTESIAN_POINT('',(-6.84622831743744,4.,-7.08019475901036));
#1288=CARTESIAN_POINT('Origin',(-5.83005912900317,4.,-5.59110101431971));
#1289=CARTESIAN_POINT('',(-3.87737345702912,4.,-6.41996690604602));
#1290=CARTESIAN_POINT('Origin',(-3.31546356690525,0.,-7.8107426878962));
#1291=CARTESIAN_POINT('',(-5.56310312740073,0.,-2.24763956049547));
#1292=CARTESIAN_POINT('',(-3.31546356690525,0.,-7.8107426878962));
#1293=CARTESIAN_POINT('Origin',(54.,0.,0.));
#1294=CARTESIAN_POINT('',(54.,0.,0.));
#1295=CARTESIAN_POINT('Origin',(0.,0.,0.));
#1296=CARTESIAN_POINT('',(0.,0.,0.));
#1297=CARTESIAN_POINT('Origin',(-5.56310312740073,0.,-2.24763956049547));
#1298=CARTESIAN_POINT('Origin',(2.24763956049547,0.,-5.56310312740073));
#1299=CARTESIAN_POINT('',(2.24763956049547,0.,-5.56310312740073));
#1300=CARTESIAN_POINT('Origin',(27.1589780226536,0.,-67.2208294560921));
#1301=CARTESIAN_POINT('',(27.1589780226536,0.,-67.2208294560921));
#1302=CARTESIAN_POINT('Origin',(21.5958748952529,0.,-69.4684690165876));
#1303=CARTESIAN_POINT('',(21.5958748952529,0.,-69.4684690165876));
#1304=CARTESIAN_POINT('Origin',(23.8435144557484,0.,-75.0315721439883));
#1305=CARTESIAN_POINT('',(23.8435144557484,0.,-75.0315721439883));
#1306=CARTESIAN_POINT('Origin',(35.8969045651166,0.,-70.1616864295814));
#1307=CARTESIAN_POINT('',(35.8969045651166,0.,-70.1616864295814));
#1308=CARTESIAN_POINT('Origin',(10.3779267795892,0.,-7.00000000000002));
#1309=UNCERTAINTY_MEASURE_WITH_UNIT(LENGTH_MEASURE(0.01),#1313,
'DISTANCE_ACCURACY_VALUE',
'Maximum model space distance between geometric entities at asserted c
onnectivities');
#1310=UNCERTAINTY_MEASURE_WITH_UNIT(LENGTH_MEASURE(0.01),#1313,
'DISTANCE_ACCURACY_VALUE',
'Maximum model space distance between geometric entities at asserted c
onnectivities');
#1311=(
GEOMETRIC_REPRESENTATION_CONTEXT(3)
GLOBAL_UNCERTAINTY_ASSIGNED_CONTEXT((#1309))
GLOBAL_UNIT_ASSIGNED_CONTEXT((#1313,#1315,#1316))
REPRESENTATION_CONTEXT('','3D')
);
#1312=(
GEOMETRIC_REPRESENTATION_CONTEXT(3)
GLOBAL_UNCERTAINTY_ASSIGNED_CONTEXT((#1310))
GLOBAL_UNIT_ASSIGNED_CONTEXT((#1313,#1315,#1316))
REPRESENTATION_CONTEXT('','3D')
);
#1313=(
LENGTH_UNIT()
NAMED_UNIT(*)
SI_UNIT(.MILLI.,.METRE.)
);
#1314=(
LENGTH_UNIT()
NAMED_UNIT(*)
SI_UNIT($,.METRE.)
);
#1315=(
NAMED_UNIT(*)
PLANE_ANGLE_UNIT()
SI_UNIT($,.RADIAN.)
);
#1316=(
NAMED_UNIT(*)
SI_UNIT($,.STERADIAN.)
SOLID_ANGLE_UNIT()
);
#1317=SHAPE_DEFINITION_REPRESENTATION(#1318,#1319);
#1318=PRODUCT_DEFINITION_SHAPE('',$,#1321);
#1319=SHAPE_REPRESENTATION('',(#837),#1311);
#1320=PRODUCT_DEFINITION_CONTEXT('part definition',#1325,'design');
#1321=PRODUCT_DEFINITION('2026-08-28-11-48-39-080','E-paper Stand',#1322,
#1320);
#1322=PRODUCT_DEFINITION_FORMATION('',$,#1327);
#1323=PRODUCT_RELATED_PRODUCT_CATEGORY('E-paper Stand','E-paper Stand',
(#1327));
#1324=APPLICATION_PROTOCOL_DEFINITION('international standard',
'automotive_design',2009,#1325);
#1325=APPLICATION_CONTEXT(
'Core Data for Automotive Mechanical Design Process');
#1326=PRODUCT_CONTEXT('part definition',#1325,'mechanical');
#1327=PRODUCT('2026-08-28-11-48-39-080','E-paper Stand',$,(#1326));
#1328=PRESENTATION_STYLE_ASSIGNMENT((#1329));
#1329=SURFACE_STYLE_USAGE(.BOTH.,#1330);
#1330=SURFACE_SIDE_STYLE('',(#1331));
#1331=SURFACE_STYLE_FILL_AREA(#1332);
#1332=FILL_AREA_STYLE('Steel - Satin',(#1333));
#1333=FILL_AREA_STYLE_COLOUR('Steel - Satin',#1334);
#1334=COLOUR_RGB('Steel - Satin',0.627450980392157,0.627450980392157,0.627450980392157);
ENDSEC;
END-ISO-10303-21;
